solid Uranium STLWriter Sun 22 Mar 2026 17:26:35
facet normal 0.0 0.0 0.0
  outer loop
    vertex -14.317951202392578 -47.39680862426758 11.50313949584961
    vertex -14.317951202392578 -47.39680862426758 0.0
    vertex -13.954090118408203 -59.307403564453125 0.0
  endloop
endfacet
facet normal 0.0 0.0 0.0
  outer loop
    vertex -14.317951202392578 -47.39680862426758 11.50313949584961
    vertex -13.954090118408203 -59.307403564453125 0.0
    vertex -13.954090118408203 -59.307403564453125 11.50313949584961
  endloop
endfacet
facet normal 0.0 0.0 0.0
  outer loop
    vertex -14.667282104492188 -35.48016357421875 11.50313949584961
    vertex -14.667282104492188 -35.48016357421875 0.0
    vertex -14.317951202392578 -47.39680862426758 0.0
  endloop
endfacet
facet normal 0.0 0.0 0.0
  outer loop
    vertex -14.667282104492188 -35.48016357421875 11.50313949584961
    vertex -14.317951202392578 -47.39680862426758 0.0
    vertex -14.317951202392578 -47.39680862426758 11.50313949584961
  endloop
endfacet
facet normal 0.0 0.0 0.0
  outer loop
    vertex 13.159416198730469 -80.98536682128906 0.0
    vertex 10.067493438720703 -82.68299102783203 11.50313949584961
    vertex 10.067493438720703 -82.68299102783203 0.0
  endloop
endfacet
facet normal 0.0 0.0 0.0
  outer loop
    vertex 8.574506759643555 -83.07046508789062 11.50313949584961
    vertex 8.574506759643555 -83.07046508789062 0.0
    vertex 10.067493438720703 -82.68299102783203 11.50313949584961
  endloop
endfacet
facet normal 0.0 0.0 0.0
  outer loop
    vertex 10.067493438720703 -82.68299102783203 0.0
    vertex 10.067493438720703 -82.68299102783203 11.50313949584961
    vertex 8.574506759643555 -83.07046508789062 0.0
  endloop
endfacet
facet normal 0.0 0.0 0.0
  outer loop
    vertex 8.574506759643555 -83.07046508789062 0.0
    vertex 8.574506759643555 -83.07046508789062 11.50313949584961
    vertex 7.059725761413574 -83.31566619873047 0.0
  endloop
endfacet
facet normal 0.0 0.0 0.0
  outer loop
    vertex 7.059725761413574 -83.31566619873047 0.0
    vertex 8.574506759643555 -83.07046508789062 11.50313949584961
    vertex 7.059725761413574 -83.31566619873047 11.50313949584961
  endloop
endfacet
facet normal 0.0 0.0 0.0
  outer loop
    vertex 7.059725761413574 -83.31566619873047 0.0
    vertex 7.059725761413574 -83.31566619873047 11.50313949584961
    vertex 5.506800174713135 -83.45611572265625 11.50313949584961
  endloop
endfacet
facet normal 0.0 0.0 0.0
  outer loop
    vertex 7.059725761413574 -83.31566619873047 0.0
    vertex 5.506800174713135 -83.45611572265625 11.50313949584961
    vertex 5.506800174713135 -83.45611572265625 0.0
  endloop
endfacet
facet normal 0.0 0.0 0.0
  outer loop
    vertex 3.9587202072143555 -83.45188903808594 0.0
    vertex 3.9587202072143555 -83.45188903808594 11.50313949584961
    vertex 3.932691812515259 -83.44451904296875 11.50313949584961
  endloop
endfacet
facet normal 0.0 0.0 0.0
  outer loop
    vertex 3.9587202072143555 -83.45188903808594 0.0
    vertex 3.932691812515259 -83.44451904296875 11.50313949584961
    vertex 3.932691812515259 -83.44451904296875 0.0
  endloop
endfacet
facet normal 0.0 0.0 0.0
  outer loop
    vertex 5.506800174713135 -83.45611572265625 0.0
    vertex 5.506800174713135 -83.45611572265625 11.50313949584961
    vertex 3.9587202072143555 -83.45188903808594 11.50313949584961
  endloop
endfacet
facet normal 0.0 0.0 0.0
  outer loop
    vertex 5.506800174713135 -83.45611572265625 0.0
    vertex 3.9587202072143555 -83.45188903808594 11.50313949584961
    vertex 3.9587202072143555 -83.45188903808594 0.0
  endloop
endfacet
facet normal 0.0 0.0 0.0
  outer loop
    vertex 3.932691812515259 -83.44451904296875 0.0
    vertex 3.932691812515259 -83.44451904296875 11.50313949584961
    vertex 3.9066543579101562 -83.45188903808594 11.50313949584961
  endloop
endfacet
facet normal 0.0 0.0 0.0
  outer loop
    vertex 3.932691812515259 -83.44451904296875 0.0
    vertex 3.9066543579101562 -83.45188903808594 11.50313949584961
    vertex 3.9066543579101562 -83.45188903808594 0.0
  endloop
endfacet
facet normal 0.0 0.0 0.0
  outer loop
    vertex 3.9066543579101562 -83.45188903808594 11.50313949584961
    vertex 2.3591794967651367 -83.45611572265625 11.50313949584961
    vertex 2.3591794967651367 -83.45611572265625 0.0
  endloop
endfacet
facet normal 0.0 0.0 0.0
  outer loop
    vertex 3.9066543579101562 -83.45188903808594 11.50313949584961
    vertex 2.3591794967651367 -83.45611572265625 0.0
    vertex 3.9066543579101562 -83.45188903808594 0.0
  endloop
endfacet
facet normal 0.0 0.0 0.0
  outer loop
    vertex 0.8062541484832764 -83.31566619873047 0.0
    vertex 2.3591794967651367 -83.45611572265625 0.0
    vertex 0.8062541484832764 -83.31566619873047 11.50313949584961
  endloop
endfacet
facet normal 0.0 0.0 0.0
  outer loop
    vertex 2.3591794967651367 -83.45611572265625 11.50313949584961
    vertex 0.8062541484832764 -83.31566619873047 11.50313949584961
    vertex 2.3591794967651367 -83.45611572265625 0.0
  endloop
endfacet
facet normal 0.0 0.0 0.0
  outer loop
    vertex 0.8062541484832764 -83.31566619873047 11.50313949584961
    vertex -0.7085270881652832 -83.07046508789062 11.50313949584961
    vertex -0.7085270881652832 -83.07046508789062 0.0
  endloop
endfacet
facet normal 0.0 0.0 0.0
  outer loop
    vertex 0.8062541484832764 -83.31566619873047 11.50313949584961
    vertex -0.7085270881652832 -83.07046508789062 0.0
    vertex 0.8062541484832764 -83.31566619873047 0.0
  endloop
endfacet
facet normal 0.0 0.0 0.0
  outer loop
    vertex -0.7085270881652832 -83.07046508789062 11.50313949584961
    vertex -2.202118396759033 -82.68299102783203 11.50313949584961
    vertex -2.202118396759033 -82.68299102783203 0.0
  endloop
endfacet
facet normal 0.0 0.0 0.0
  outer loop
    vertex -0.7085270881652832 -83.07046508789062 11.50313949584961
    vertex -2.202118396759033 -82.68299102783203 0.0
    vertex -0.7085270881652832 -83.07046508789062 0.0
  endloop
endfacet
facet normal 0.0 0.0 0.0
  outer loop
    vertex -2.202118396759033 -82.68299102783203 11.50313949584961
    vertex -5.293435096740723 -80.98536682128906 11.50313949584961
    vertex -5.293435096740723 -80.98536682128906 0.0
  endloop
endfacet
facet normal 0.0 0.0 0.0
  outer loop
    vertex -2.202118396759033 -82.68299102783203 11.50313949584961
    vertex -5.293435096740723 -80.98536682128906 0.0
    vertex -2.202118396759033 -82.68299102783203 0.0
  endloop
endfacet
facet normal 0.0 0.0 0.0
  outer loop
    vertex -5.293435096740723 -80.98536682128906 11.50313949584961
    vertex -8.341767311096191 -79.11096954345703 11.50313949584961
    vertex -8.341767311096191 -79.11096954345703 0.0
  endloop
endfacet
facet normal 0.0 0.0 0.0
  outer loop
    vertex -5.293435096740723 -80.98536682128906 11.50313949584961
    vertex -8.341767311096191 -79.11096954345703 0.0
    vertex -5.293435096740723 -80.98536682128906 0.0
  endloop
endfacet
facet normal 0.0 0.0 0.0
  outer loop
    vertex -8.341767311096191 -79.11096954345703 11.50313949584961
    vertex -8.783731460571289 -78.79251098632812 11.50313949584961
    vertex -8.783731460571289 -78.79251098632812 0.0
  endloop
endfacet
facet normal 0.0 0.0 0.0
  outer loop
    vertex -8.341767311096191 -79.11096954345703 11.50313949584961
    vertex -8.783731460571289 -78.79251098632812 0.0
    vertex -8.341767311096191 -79.11096954345703 0.0
  endloop
endfacet
facet normal 0.0 0.0 0.0
  outer loop
    vertex -9.371603012084961 -78.33965301513672 0.0
    vertex -8.783731460571289 -78.79251098632812 0.0
    vertex -9.371603012084961 -78.33965301513672 11.50313949584961
  endloop
endfacet
facet normal 0.0 0.0 0.0
  outer loop
    vertex -8.783731460571289 -78.79251098632812 11.50313949584961
    vertex -9.371603012084961 -78.33965301513672 11.50313949584961
    vertex -8.783731460571289 -78.79251098632812 0.0
  endloop
endfacet
facet normal 0.0 0.0 0.0
  outer loop
    vertex -10.707179069519043 -76.01419830322266 11.50313949584961
    vertex -10.707179069519043 -76.01419830322266 0.0
    vertex -9.371603012084961 -78.33965301513672 0.0
  endloop
endfacet
facet normal 0.0 0.0 0.0
  outer loop
    vertex -10.707179069519043 -76.01419830322266 11.50313949584961
    vertex -9.371603012084961 -78.33965301513672 0.0
    vertex -9.371603012084961 -78.33965301513672 11.50313949584961
  endloop
endfacet
facet normal 0.0 0.0 0.0
  outer loop
    vertex -11.75214672088623 -73.82132720947266 11.50313949584961
    vertex -11.75214672088623 -73.82132720947266 0.0
    vertex -10.707179069519043 -76.01419830322266 0.0
  endloop
endfacet
facet normal 0.0 0.0 0.0
  outer loop
    vertex -11.75214672088623 -73.82132720947266 11.50313949584961
    vertex -10.707179069519043 -76.01419830322266 0.0
    vertex -10.707179069519043 -76.01419830322266 11.50313949584961
  endloop
endfacet
facet normal 0.0 0.0 0.0
  outer loop
    vertex -12.430830001831055 -70.32014465332031 0.0
    vertex -11.75214672088623 -73.82132720947266 0.0
    vertex -11.75214672088623 -73.82132720947266 11.50313949584961
  endloop
endfacet
facet normal 0.0 0.0 0.0
  outer loop
    vertex 24.23875617980957 78.27741241455078 0.0
    vertex -23.950315475463867 58.20503234863281 0.0
    vertex 22.66403579711914 79.84123229980469 0.0
  endloop
endfacet
facet normal 0.0 0.0 0.0
  outer loop
    vertex 22.66403579711914 79.84123229980469 0.0
    vertex -23.950315475463867 58.20503234863281 0.0
    vertex 21.014244079589844 81.2161636352539 0.0
  endloop
endfacet
facet normal 0.0 0.0 0.0
  outer loop
    vertex 25.45203399658203 76.61369323730469 0.0
    vertex -23.950315475463867 58.20503234863281 0.0
    vertex 24.23875617980957 78.27741241455078 0.0
  endloop
endfacet
facet normal 0.0 0.0 0.0
  outer loop
    vertex 26.595687866210938 74.84100341796875 0.0
    vertex -23.950315475463867 58.20503234863281 0.0
    vertex 25.45203399658203 76.61369323730469 0.0
  endloop
endfacet
facet normal 0.0 0.0 0.0
  outer loop
    vertex 27.626733779907227 72.84551239013672 0.0
    vertex -23.950315475463867 58.20503234863281 0.0
    vertex 26.595687866210938 74.84100341796875 0.0
  endloop
endfacet
facet normal 0.0 0.0 0.0
  outer loop
    vertex 18.02887725830078 82.67463684082031 0.0
    vertex 21.014244079589844 81.2161636352539 0.0
    vertex -23.950315475463867 58.20503234863281 0.0
  endloop
endfacet
facet normal 0.0 0.0 0.0
  outer loop
    vertex 28.58028221130371 70.77191162109375 0.0
    vertex -23.950315475463867 58.20503234863281 0.0
    vertex 27.626733779907227 72.84551239013672 0.0
  endloop
endfacet
facet normal 0.0 0.0 0.0
  outer loop
    vertex 29.303163528442383 68.5403060913086 0.0
    vertex -23.950315475463867 58.20503234863281 0.0
    vertex 28.58028221130371 70.77191162109375 0.0
  endloop
endfacet
facet normal 0.0 0.0 0.0
  outer loop
    vertex 34.14659118652344 45.89970016479492 0.0
    vertex -26.280004501342773 45.89970016479492 0.0
    vertex 33.57264709472656 50.10924530029297 0.0
  endloop
endfacet
facet normal 0.0 0.0 0.0
  outer loop
    vertex -26.280004501342773 45.89970016479492 0.0
    vertex -25.706058502197266 50.10924530029297 0.0
    vertex 33.57264709472656 50.10924530029297 0.0
  endloop
endfacet
facet normal 0.0 0.0 0.0
  outer loop
    vertex 34.68118667602539 39.3737907409668 0.0
    vertex 34.689056396484375 37.08769226074219 0.0
    vertex -26.814598083496094 39.3737907409668 0.0
  endloop
endfacet
facet normal 0.0 0.0 0.0
  outer loop
    vertex -26.82246971130371 37.08769226074219 0.0
    vertex -26.814598083496094 39.3737907409668 0.0
    vertex 34.689056396484375 37.08769226074219 0.0
  endloop
endfacet
facet normal 0.0 0.0 0.0
  outer loop
    vertex 34.52195739746094 33.123348236083984 0.0
    vertex -26.655370712280273 33.123348236083984 0.0
    vertex 34.689056396484375 37.08769226074219 0.0
  endloop
endfacet
facet normal 0.0 0.0 0.0
  outer loop
    vertex 30.21433448791504 12.259074211120605 0.0
    vertex 10.637361526489258 8.81116008758545 0.0
    vertex 32.766212463378906 20.042463302612305 0.0
  endloop
endfacet
facet normal 0.0 0.0 0.0
  outer loop
    vertex 10.637361526489258 8.81116008758545 0.0
    vertex -26.388376235961914 29.175350189208984 0.0
    vertex 32.766212463378906 20.042463302612305 0.0
  endloop
endfacet
facet normal 0.0 0.0 0.0
  outer loop
    vertex 27.462663650512695 2.914287567138672 0.0
    vertex 10.637361526489258 8.81116008758545 0.0
    vertex 27.74297523498535 4.443599224090576 0.0
  endloop
endfacet
facet normal 0.0 0.0 0.0
  outer loop
    vertex 25.25284767150879 -10.115742683410645 0.0
    vertex 10.637361526489258 8.81116008758545 0.0
    vertex 27.169635772705078 0.849170982837677 0.0
  endloop
endfacet
facet normal 0.0 0.0 0.0
  outer loop
    vertex 27.462663650512695 2.914287567138672 0.0
    vertex 27.169635772705078 0.849170982837677 0.0
    vertex 10.637361526489258 8.81116008758545 0.0
  endloop
endfacet
facet normal 0.0 0.0 0.0
  outer loop
    vertex 30.21433448791504 12.259074211120605 0.0
    vertex 27.74297523498535 4.443599224090576 0.0
    vertex 10.637361526489258 8.81116008758545 0.0
  endloop
endfacet
facet normal 0.0 0.0 0.0
  outer loop
    vertex -14.317951202392578 -47.39680862426758 0.0
    vertex -14.667282104492188 -35.48016357421875 0.0
    vertex 22.53326416015625 -35.48016357421875 0.0
  endloop
endfacet
facet normal 0.0 0.0 0.0
  outer loop
    vertex 22.53326416015625 -35.48016357421875 0.0
    vertex 22.18453598022461 -47.39680862426758 0.0
    vertex -14.317951202392578 -47.39680862426758 0.0
  endloop
endfacet
facet normal 0.0 0.0 0.0
  outer loop
    vertex 22.18453598022461 -47.39680862426758 0.0
    vertex 21.820070266723633 -59.307403564453125 0.0
    vertex -14.317951202392578 -47.39680862426758 0.0
  endloop
endfacet
facet normal 0.0 0.0 0.0
  outer loop
    vertex -13.954090118408203 -59.307403564453125 0.0
    vertex -14.317951202392578 -47.39680862426758 0.0
    vertex 21.820070266723633 -59.307403564453125 0.0
  endloop
endfacet
facet normal 0.0 0.0 0.0
  outer loop
    vertex 16.64971160888672 -78.79251098632812 0.0
    vertex -12.961793899536133 -66.72268676757812 0.0
    vertex 17.237581253051758 -78.33965301513672 0.0
  endloop
endfacet
facet normal 0.0 0.0 0.0
  outer loop
    vertex 16.207748413085938 -79.11096954345703 0.0
    vertex -12.961793899536133 -66.72268676757812 0.0
    vertex 16.64971160888672 -78.79251098632812 0.0
  endloop
endfacet
facet normal 0.0 0.0 0.0
  outer loop
    vertex 14.998102188110352 83.97449493408203 0.0
    vertex 18.02887725830078 82.67463684082031 0.0
    vertex -23.950315475463867 58.20503234863281 0.0
  endloop
endfacet
facet normal 0.0 0.0 0.0
  outer loop
    vertex 12.138057708740234 85.06546783447266 0.0
    vertex 14.998102188110352 83.97449493408203 0.0
    vertex -23.950315475463867 58.20503234863281 0.0
  endloop
endfacet
facet normal 0.0 0.0 0.0
  outer loop
    vertex 29.944917678833008 66.25057220458984 0.0
    vertex -23.950315475463867 58.20503234863281 0.0
    vertex 29.303163528442383 68.5403060913086 0.0
  endloop
endfacet
facet normal 0.0 0.0 0.0
  outer loop
    vertex 6.008701801300049 85.68966674804688 0.0
    vertex 10.943824768066406 85.47595977783203 0.0
    vertex -23.950315475463867 58.20503234863281 0.0
  endloop
endfacet
facet normal 0.0 0.0 0.0
  outer loop
    vertex 10.943824768066406 85.47595977783203 0.0
    vertex 12.138057708740234 85.06546783447266 0.0
    vertex -23.950315475463867 58.20503234863281 0.0
  endloop
endfacet
facet normal 0.0 0.0 0.0
  outer loop
    vertex -7.132122993469238 83.97449493408203 0.0
    vertex -5.125065803527832 84.74009704589844 0.0
    vertex 0.2202003002166748 85.43902587890625 0.0
  endloop
endfacet
facet normal 0.0 0.0 0.0
  outer loop
    vertex -10.162897109985352 82.67463684082031 0.0
    vertex -7.132122993469238 83.97449493408203 0.0
    vertex 0.2202003002166748 85.43902587890625 0.0
  endloop
endfacet
facet normal 0.0 0.0 0.0
  outer loop
    vertex -23.950315475463867 58.20503234863281 0.0
    vertex -22.078332901000977 66.25057220458984 0.0
    vertex 6.008701801300049 85.68966674804688 0.0
  endloop
endfacet
facet normal 0.0 0.0 0.0
  outer loop
    vertex -19.760147094726562 72.84551239013672 0.0
    vertex 0.2202003002166748 85.43902587890625 0.0
    vertex -20.713699340820312 70.77191162109375 0.0
  endloop
endfacet
facet normal 0.0 0.0 0.0
  outer loop
    vertex -18.72910499572754 74.84100341796875 0.0
    vertex 0.2202003002166748 85.43902587890625 0.0
    vertex -19.760147094726562 72.84551239013672 0.0
  endloop
endfacet
facet normal 0.0 0.0 0.0
  outer loop
    vertex -17.586055755615234 76.61369323730469 0.0
    vertex 0.2202003002166748 85.43902587890625 0.0
    vertex -18.72910499572754 74.84100341796875 0.0
  endloop
endfacet
facet normal 0.0 0.0 0.0
  outer loop
    vertex -16.372774124145508 78.27741241455078 0.0
    vertex 0.2202003002166748 85.43902587890625 0.0
    vertex -17.586055755615234 76.61369323730469 0.0
  endloop
endfacet
facet normal 0.0 0.0 0.0
  outer loop
    vertex -14.798055648803711 79.84123229980469 0.0
    vertex 0.2202003002166748 85.43902587890625 0.0
    vertex -16.372774124145508 78.27741241455078 0.0
  endloop
endfacet
facet normal 0.0 0.0 0.0
  outer loop
    vertex -13.147659301757812 81.2161636352539 0.0
    vertex -10.162897109985352 82.67463684082031 0.0
    vertex -14.798055648803711 79.84123229980469 0.0
  endloop
endfacet
facet normal 0.0 0.0 0.0
  outer loop
    vertex 0.2202003002166748 85.43902587890625 0.0
    vertex -14.798055648803711 79.84123229980469 0.0
    vertex -10.162897109985352 82.67463684082031 0.0
  endloop
endfacet
facet normal 0.0 0.0 0.0
  outer loop
    vertex -21.43657684326172 68.5403060913086 0.0
    vertex -20.713699340820312 70.77191162109375 0.0
    vertex 0.2202003002166748 85.43902587890625 0.0
  endloop
endfacet
facet normal 0.0 0.0 0.0
  outer loop
    vertex -25.706058502197266 50.10924530029297 0.0
    vertex -23.950315475463867 58.20503234863281 0.0
    vertex 33.57264709472656 50.10924530029297 0.0
  endloop
endfacet
facet normal 0.0 0.0 0.0
  outer loop
    vertex -26.814598083496094 39.3737907409668 0.0
    vertex -26.72923469543457 41.654441833496094 0.0
    vertex 34.59581756591797 41.654441833496094 0.0
  endloop
endfacet
facet normal 0.0 0.0 0.0
  outer loop
    vertex -21.43657684326172 68.5403060913086 0.0
    vertex 0.2202003002166748 85.43902587890625 0.0
    vertex -22.078332901000977 66.25057220458984 0.0
  endloop
endfacet
facet normal 0.0 0.0 0.0
  outer loop
    vertex 0.2202003002166748 85.43902587890625 0.0
    vertex 6.008701801300049 85.68966674804688 0.0
    vertex -22.078332901000977 66.25057220458984 0.0
  endloop
endfacet
facet normal 0.0 0.0 0.0
  outer loop
    vertex 31.81690216064453 58.20503234863281 0.0
    vertex 33.57264709472656 50.10924530029297 0.0
    vertex -23.950315475463867 58.20503234863281 0.0
  endloop
endfacet
facet normal 0.0 0.0 0.0
  outer loop
    vertex 29.944917678833008 66.25057220458984 0.0
    vertex 31.81690216064453 58.20503234863281 0.0
    vertex -23.950315475463867 58.20503234863281 0.0
  endloop
endfacet
facet normal 0.0 0.0 0.0
  outer loop
    vertex 34.59581756591797 41.654441833496094 0.0
    vertex 34.68118667602539 39.3737907409668 0.0
    vertex -26.814598083496094 39.3737907409668 0.0
  endloop
endfacet
facet normal 0.0 0.0 0.0
  outer loop
    vertex 33.604736328125 24.570463180541992 0.0
    vertex 32.766212463378906 20.042463302612305 0.0
    vertex -26.388376235961914 29.175350189208984 0.0
  endloop
endfacet
facet normal 0.0 0.0 0.0
  outer loop
    vertex 34.25496292114258 29.175350189208984 0.0
    vertex -26.388376235961914 29.175350189208984 0.0
    vertex 34.52195739746094 33.123348236083984 0.0
  endloop
endfacet
facet normal 0.0 0.0 0.0
  outer loop
    vertex 34.14659118652344 45.89970016479492 0.0
    vertex 34.59581756591797 41.654441833496094 0.0
    vertex -26.280004501342773 45.89970016479492 0.0
  endloop
endfacet
facet normal 0.0 0.0 0.0
  outer loop
    vertex -26.72923469543457 41.654441833496094 0.0
    vertex -26.280004501342773 45.89970016479492 0.0
    vertex 34.59581756591797 41.654441833496094 0.0
  endloop
endfacet
facet normal 0.0 0.0 0.0
  outer loop
    vertex -26.82246971130371 37.08769226074219 0.0
    vertex 34.689056396484375 37.08769226074219 0.0
    vertex -26.655370712280273 33.123348236083984 0.0
  endloop
endfacet
facet normal 0.0 0.0 0.0
  outer loop
    vertex -26.655370712280273 33.123348236083984 0.0
    vertex 34.52195739746094 33.123348236083984 0.0
    vertex -26.388376235961914 29.175350189208984 0.0
  endloop
endfacet
facet normal 0.0 0.0 0.0
  outer loop
    vertex 34.25496292114258 29.175350189208984 0.0
    vertex 33.604736328125 24.570463180541992 0.0
    vertex -26.388376235961914 29.175350189208984 0.0
  endloop
endfacet
facet normal 0.0 0.0 0.0
  outer loop
    vertex -25.738147735595703 24.570463180541992 0.0
    vertex -26.388376235961914 29.175350189208984 0.0
    vertex 10.637361526489258 8.81116008758545 0.0
  endloop
endfacet
facet normal 0.0 0.0 0.0
  outer loop
    vertex -24.900232315063477 20.042463302612305 0.0
    vertex -25.738147735595703 24.570463180541992 0.0
    vertex 10.637361526489258 8.81116008758545 0.0
  endloop
endfacet
facet normal 0.0 0.0 0.0
  outer loop
    vertex -24.900232315063477 20.042463302612305 0.0
    vertex 10.637361526489258 8.81116008758545 0.0
    vertex -22.34835433959961 12.259074211120605 0.0
  endloop
endfacet
facet normal 0.0 0.0 0.0
  outer loop
    vertex 23.835540771484375 -19.203222274780273 0.0
    vertex 23.083599090576172 -27.320201873779297 0.0
    vertex -15.21701431274414 -27.320201873779297 0.0
  endloop
endfacet
facet normal 0.0 0.0 0.0
  outer loop
    vertex 10.637361526489258 8.81116008758545 0.0
    vertex 25.25284767150879 -10.115742683410645 0.0
    vertex -17.386262893676758 -10.115742683410645 0.0
  endloop
endfacet
facet normal 0.0 0.0 0.0
  outer loop
    vertex -19.87639045715332 4.443599224090576 0.0
    vertex -22.34835433959961 12.259074211120605 0.0
    vertex 10.637361526489258 8.81116008758545 0.0
  endloop
endfacet
facet normal 0.0 0.0 0.0
  outer loop
    vertex -19.596078872680664 2.914287567138672 0.0
    vertex 10.637361526489258 8.81116008758545 0.0
    vertex -19.303050994873047 0.849170982837677 0.0
  endloop
endfacet
facet normal 0.0 0.0 0.0
  outer loop
    vertex -19.596078872680664 2.914287567138672 0.0
    vertex -19.87639045715332 4.443599224090576 0.0
    vertex 10.637361526489258 8.81116008758545 0.0
  endloop
endfacet
facet normal 0.0 0.0 0.0
  outer loop
    vertex -17.386262893676758 -10.115742683410645 0.0
    vertex -19.303050994873047 0.849170982837677 0.0
    vertex 10.637361526489258 8.81116008758545 0.0
  endloop
endfacet
facet normal 0.0 0.0 0.0
  outer loop
    vertex 21.377500534057617 -63.025943756103516 0.0
    vertex -13.510915756225586 -63.025943756103516 0.0
    vertex 21.820070266723633 -59.307403564453125 0.0
  endloop
endfacet
facet normal 0.0 0.0 0.0
  outer loop
    vertex 25.25284767150879 -10.115742683410645 0.0
    vertex 23.835540771484375 -19.203222274780273 0.0
    vertex -17.386262893676758 -10.115742683410645 0.0
  endloop
endfacet
facet normal 0.0 0.0 0.0
  outer loop
    vertex -14.667282104492188 -35.48016357421875 0.0
    vertex -15.21701431274414 -27.320201873779297 0.0
    vertex 22.53326416015625 -35.48016357421875 0.0
  endloop
endfacet
facet normal 0.0 0.0 0.0
  outer loop
    vertex -15.969558715820312 -19.203222274780273 0.0
    vertex -17.386262893676758 -10.115742683410645 0.0
    vertex 23.835540771484375 -19.203222274780273 0.0
  endloop
endfacet
facet normal 0.0 0.0 0.0
  outer loop
    vertex 23.083599090576172 -27.320201873779297 0.0
    vertex 22.53326416015625 -35.48016357421875 0.0
    vertex -15.21701431274414 -27.320201873779297 0.0
  endloop
endfacet
facet normal 0.0 0.0 0.0
  outer loop
    vertex -15.21701431274414 -27.320201873779297 0.0
    vertex -15.969558715820312 -19.203222274780273 0.0
    vertex 23.835540771484375 -19.203222274780273 0.0
  endloop
endfacet
facet normal 0.0 0.0 0.0
  outer loop
    vertex 21.377500534057617 -63.025943756103516 0.0
    vertex 20.82777214050293 -66.72268676757812 0.0
    vertex -13.510915756225586 -63.025943756103516 0.0
  endloop
endfacet
facet normal 0.0 0.0 0.0
  outer loop
    vertex -13.954090118408203 -59.307403564453125 0.0
    vertex 21.820070266723633 -59.307403564453125 0.0
    vertex -13.510915756225586 -63.025943756103516 0.0
  endloop
endfacet
facet normal 0.0 0.0 0.0
  outer loop
    vertex 18.573158264160156 -76.01419830322266 0.0
    vertex 17.237581253051758 -78.33965301513672 0.0
    vertex -12.961793899536133 -66.72268676757812 0.0
  endloop
endfacet
facet normal 0.0 0.0 0.0
  outer loop
    vertex 34.25496292114258 29.175350189208984 11.50313949584961
    vertex 33.604736328125 24.570463180541992 11.50313949584961
    vertex 34.25496292114258 29.175350189208984 0.0
  endloop
endfacet
facet normal 0.0 0.0 0.0
  outer loop
    vertex 33.604736328125 24.570463180541992 0.0
    vertex 34.25496292114258 29.175350189208984 0.0
    vertex 33.604736328125 24.570463180541992 11.50313949584961
  endloop
endfacet
facet normal 0.0 0.0 0.0
  outer loop
    vertex 34.25496292114258 29.175350189208984 0.0
    vertex 34.52195739746094 33.123348236083984 0.0
    vertex 34.52195739746094 33.123348236083984 11.50313949584961
  endloop
endfacet
facet normal 0.0 0.0 0.0
  outer loop
    vertex 34.25496292114258 29.175350189208984 0.0
    vertex 34.52195739746094 33.123348236083984 11.50313949584961
    vertex 34.25496292114258 29.175350189208984 11.50313949584961
  endloop
endfacet
facet normal 0.0 0.0 0.0
  outer loop
    vertex 34.52195739746094 33.123348236083984 0.0
    vertex 34.689056396484375 37.08769226074219 0.0
    vertex 34.689056396484375 37.08769226074219 11.50313949584961
  endloop
endfacet
facet normal 0.0 0.0 0.0
  outer loop
    vertex 34.52195739746094 33.123348236083984 0.0
    vertex 34.689056396484375 37.08769226074219 11.50313949584961
    vertex 34.52195739746094 33.123348236083984 11.50313949584961
  endloop
endfacet
facet normal 0.0 0.0 0.0
  outer loop
    vertex 34.68118667602539 39.3737907409668 0.0
    vertex 34.68118667602539 39.3737907409668 11.50313949584961
    vertex 34.689056396484375 37.08769226074219 11.50313949584961
  endloop
endfacet
facet normal 0.0 0.0 0.0
  outer loop
    vertex 34.68118667602539 39.3737907409668 0.0
    vertex 34.689056396484375 37.08769226074219 11.50313949584961
    vertex 34.689056396484375 37.08769226074219 0.0
  endloop
endfacet
facet normal 0.0 0.0 0.0
  outer loop
    vertex 34.59581756591797 41.654441833496094 0.0
    vertex 34.59581756591797 41.654441833496094 11.50313949584961
    vertex 34.68118667602539 39.3737907409668 11.50313949584961
  endloop
endfacet
facet normal 0.0 0.0 0.0
  outer loop
    vertex 34.59581756591797 41.654441833496094 0.0
    vertex 34.68118667602539 39.3737907409668 11.50313949584961
    vertex 34.68118667602539 39.3737907409668 0.0
  endloop
endfacet
facet normal 0.0 0.0 0.0
  outer loop
    vertex 34.14659118652344 45.89970016479492 0.0
    vertex 34.14659118652344 45.89970016479492 11.50313949584961
    vertex 34.59581756591797 41.654441833496094 11.50313949584961
  endloop
endfacet
facet normal 0.0 0.0 0.0
  outer loop
    vertex 34.14659118652344 45.89970016479492 0.0
    vertex 34.59581756591797 41.654441833496094 11.50313949584961
    vertex 34.59581756591797 41.654441833496094 0.0
  endloop
endfacet
facet normal 0.0 0.0 0.0
  outer loop
    vertex 30.21433448791504 12.259074211120605 0.0
    vertex 32.766212463378906 20.042463302612305 0.0
    vertex 32.766212463378906 20.042463302612305 11.50313949584961
  endloop
endfacet
facet normal 0.0 0.0 0.0
  outer loop
    vertex 30.21433448791504 12.259074211120605 0.0
    vertex 32.766212463378906 20.042463302612305 11.50313949584961
    vertex 30.21433448791504 12.259074211120605 11.50313949584961
  endloop
endfacet
facet normal 0.0 0.0 0.0
  outer loop
    vertex 27.74297523498535 4.443599224090576 0.0
    vertex 30.21433448791504 12.259074211120605 0.0
    vertex 30.21433448791504 12.259074211120605 11.50313949584961
  endloop
endfacet
facet normal 0.0 0.0 0.0
  outer loop
    vertex 32.766212463378906 20.042463302612305 11.50313949584961
    vertex 32.766212463378906 20.042463302612305 0.0
    vertex 33.604736328125 24.570463180541992 11.50313949584961
  endloop
endfacet
facet normal 0.0 0.0 0.0
  outer loop
    vertex 33.604736328125 24.570463180541992 0.0
    vertex 33.604736328125 24.570463180541992 11.50313949584961
    vertex 32.766212463378906 20.042463302612305 0.0
  endloop
endfacet
facet normal 0.0 0.0 0.0
  outer loop
    vertex 30.21433448791504 12.259074211120605 11.50313949584961
    vertex 27.74297523498535 4.443599224090576 11.50313949584961
    vertex 27.74297523498535 4.443599224090576 0.0
  endloop
endfacet
facet normal 0.0 0.0 0.0
  outer loop
    vertex 27.169635772705078 0.849170982837677 0.0
    vertex 27.169635772705078 0.849170982837677 11.50313949584961
    vertex 25.25284767150879 -10.115742683410645 11.50313949584961
  endloop
endfacet
facet normal 0.0 0.0 0.0
  outer loop
    vertex 27.169635772705078 0.849170982837677 0.0
    vertex 25.25284767150879 -10.115742683410645 11.50313949584961
    vertex 25.25284767150879 -10.115742683410645 0.0
  endloop
endfacet
facet normal 0.0 0.0 0.0
  outer loop
    vertex 27.74297523498535 4.443599224090576 0.0
    vertex 27.74297523498535 4.443599224090576 11.50313949584961
    vertex 27.462663650512695 2.914287567138672 11.50313949584961
  endloop
endfacet
facet normal 0.0 0.0 0.0
  outer loop
    vertex 27.74297523498535 4.443599224090576 0.0
    vertex 27.462663650512695 2.914287567138672 11.50313949584961
    vertex 27.462663650512695 2.914287567138672 0.0
  endloop
endfacet
facet normal 0.0 0.0 0.0
  outer loop
    vertex 27.462663650512695 2.914287567138672 0.0
    vertex 27.462663650512695 2.914287567138672 11.50313949584961
    vertex 27.169635772705078 0.849170982837677 11.50313949584961
  endloop
endfacet
facet normal 0.0 0.0 0.0
  outer loop
    vertex 27.462663650512695 2.914287567138672 0.0
    vertex 27.169635772705078 0.849170982837677 11.50313949584961
    vertex 27.169635772705078 0.849170982837677 0.0
  endloop
endfacet
facet normal 0.0 0.0 0.0
  outer loop
    vertex 23.835540771484375 -19.203222274780273 11.50313949584961
    vertex 23.835540771484375 -19.203222274780273 0.0
    vertex 25.25284767150879 -10.115742683410645 11.50313949584961
  endloop
endfacet
facet normal 0.0 0.0 0.0
  outer loop
    vertex 25.25284767150879 -10.115742683410645 0.0
    vertex 25.25284767150879 -10.115742683410645 11.50313949584961
    vertex 23.835540771484375 -19.203222274780273 0.0
  endloop
endfacet
facet normal 0.0 0.0 0.0
  outer loop
    vertex 23.835540771484375 -19.203222274780273 0.0
    vertex 23.835540771484375 -19.203222274780273 11.50313949584961
    vertex 23.083599090576172 -27.320201873779297 11.50313949584961
  endloop
endfacet
facet normal 0.0 0.0 0.0
  outer loop
    vertex 23.835540771484375 -19.203222274780273 0.0
    vertex 23.083599090576172 -27.320201873779297 11.50313949584961
    vertex 23.083599090576172 -27.320201873779297 0.0
  endloop
endfacet
facet normal 0.0 0.0 0.0
  outer loop
    vertex 20.296810150146484 -70.32014465332031 0.0
    vertex 20.296810150146484 -70.32014465332031 11.50313949584961
    vertex 19.618732452392578 -73.82132720947266 11.50313949584961
  endloop
endfacet
facet normal 0.0 0.0 0.0
  outer loop
    vertex 21.377500534057617 -63.025943756103516 0.0
    vertex 21.377500534057617 -63.025943756103516 11.50313949584961
    vertex 20.82777214050293 -66.72268676757812 11.50313949584961
  endloop
endfacet
facet normal 0.0 0.0 0.0
  outer loop
    vertex 21.377500534057617 -63.025943756103516 0.0
    vertex 20.82777214050293 -66.72268676757812 11.50313949584961
    vertex 20.82777214050293 -66.72268676757812 0.0
  endloop
endfacet
facet normal 0.0 0.0 0.0
  outer loop
    vertex 21.377500534057617 -63.025943756103516 11.50313949584961
    vertex 21.377500534057617 -63.025943756103516 0.0
    vertex 21.820070266723633 -59.307403564453125 0.0
  endloop
endfacet
facet normal 0.0 0.0 0.0
  outer loop
    vertex 20.82777214050293 -66.72268676757812 0.0
    vertex 20.82777214050293 -66.72268676757812 11.50313949584961
    vertex 20.296810150146484 -70.32014465332031 11.50313949584961
  endloop
endfacet
facet normal 0.0 0.0 0.0
  outer loop
    vertex 20.82777214050293 -66.72268676757812 0.0
    vertex 20.296810150146484 -70.32014465332031 11.50313949584961
    vertex 20.296810150146484 -70.32014465332031 0.0
  endloop
endfacet
facet normal 0.0 0.0 0.0
  outer loop
    vertex 21.377500534057617 -63.025943756103516 11.50313949584961
    vertex 21.820070266723633 -59.307403564453125 0.0
    vertex 21.820070266723633 -59.307403564453125 11.50313949584961
  endloop
endfacet
facet normal 0.0 0.0 0.0
  outer loop
    vertex 23.083599090576172 -27.320201873779297 0.0
    vertex 23.083599090576172 -27.320201873779297 11.50313949584961
    vertex 22.53326416015625 -35.48016357421875 0.0
  endloop
endfacet
facet normal 0.0 0.0 0.0
  outer loop
    vertex 22.53326416015625 -35.48016357421875 11.50313949584961
    vertex 22.53326416015625 -35.48016357421875 0.0
    vertex 23.083599090576172 -27.320201873779297 11.50313949584961
  endloop
endfacet
facet normal 0.0 0.0 0.0
  outer loop
    vertex 22.18453598022461 -47.39680862426758 0.0
    vertex 22.18453598022461 -47.39680862426758 11.50313949584961
    vertex 21.820070266723633 -59.307403564453125 11.50313949584961
  endloop
endfacet
facet normal 0.0 0.0 0.0
  outer loop
    vertex 22.18453598022461 -47.39680862426758 0.0
    vertex 21.820070266723633 -59.307403564453125 11.50313949584961
    vertex 21.820070266723633 -59.307403564453125 0.0
  endloop
endfacet
facet normal 0.0 0.0 0.0
  outer loop
    vertex 22.53326416015625 -35.48016357421875 0.0
    vertex 22.53326416015625 -35.48016357421875 11.50313949584961
    vertex 22.18453598022461 -47.39680862426758 11.50313949584961
  endloop
endfacet
facet normal 0.0 0.0 0.0
  outer loop
    vertex 22.53326416015625 -35.48016357421875 0.0
    vertex 22.18453598022461 -47.39680862426758 11.50313949584961
    vertex 22.18453598022461 -47.39680862426758 0.0
  endloop
endfacet
facet normal 0.0 0.0 0.0
  outer loop
    vertex 10.067493438720703 -82.68299102783203 11.50313949584961
    vertex 13.159416198730469 -80.98536682128906 0.0
    vertex 13.159416198730469 -80.98536682128906 11.50313949584961
  endloop
endfacet
facet normal 0.0 0.0 0.0
  outer loop
    vertex 16.207748413085938 -79.11096954345703 0.0
    vertex 16.207748413085938 -79.11096954345703 11.50313949584961
    vertex 13.159416198730469 -80.98536682128906 11.50313949584961
  endloop
endfacet
facet normal 0.0 0.0 0.0
  outer loop
    vertex 16.207748413085938 -79.11096954345703 0.0
    vertex 13.159416198730469 -80.98536682128906 11.50313949584961
    vertex 13.159416198730469 -80.98536682128906 0.0
  endloop
endfacet
facet normal 0.0 0.0 0.0
  outer loop
    vertex 16.64971160888672 -78.79251098632812 0.0
    vertex 16.64971160888672 -78.79251098632812 11.50313949584961
    vertex 16.207748413085938 -79.11096954345703 11.50313949584961
  endloop
endfacet
facet normal 0.0 0.0 0.0
  outer loop
    vertex 16.64971160888672 -78.79251098632812 0.0
    vertex 16.207748413085938 -79.11096954345703 11.50313949584961
    vertex 16.207748413085938 -79.11096954345703 0.0
  endloop
endfacet
facet normal 0.0 0.0 0.0
  outer loop
    vertex 17.237581253051758 -78.33965301513672 0.0
    vertex 17.237581253051758 -78.33965301513672 11.50313949584961
    vertex 16.64971160888672 -78.79251098632812 11.50313949584961
  endloop
endfacet
facet normal 0.0 0.0 0.0
  outer loop
    vertex 17.237581253051758 -78.33965301513672 0.0
    vertex 16.64971160888672 -78.79251098632812 11.50313949584961
    vertex 16.64971160888672 -78.79251098632812 0.0
  endloop
endfacet
facet normal 0.0 0.0 0.0
  outer loop
    vertex 18.573158264160156 -76.01419830322266 0.0
    vertex 18.573158264160156 -76.01419830322266 11.50313949584961
    vertex 17.237581253051758 -78.33965301513672 11.50313949584961
  endloop
endfacet
facet normal 0.0 0.0 0.0
  outer loop
    vertex 18.573158264160156 -76.01419830322266 0.0
    vertex 17.237581253051758 -78.33965301513672 11.50313949584961
    vertex 17.237581253051758 -78.33965301513672 0.0
  endloop
endfacet
facet normal 0.0 0.0 0.0
  outer loop
    vertex 19.618732452392578 -73.82132720947266 0.0
    vertex 19.618732452392578 -73.82132720947266 11.50313949584961
    vertex 18.573158264160156 -76.01419830322266 11.50313949584961
  endloop
endfacet
facet normal 0.0 0.0 0.0
  outer loop
    vertex 19.618732452392578 -73.82132720947266 0.0
    vertex 18.573158264160156 -76.01419830322266 11.50313949584961
    vertex 18.573158264160156 -76.01419830322266 0.0
  endloop
endfacet
facet normal 0.0 0.0 0.0
  outer loop
    vertex 19.618732452392578 -73.82132720947266 11.50313949584961
    vertex 19.618732452392578 -73.82132720947266 0.0
    vertex 20.296810150146484 -70.32014465332031 0.0
  endloop
endfacet
facet normal 0.0 0.0 0.0
  outer loop
    vertex -5.125065803527832 84.74009704589844 11.50313949584961
    vertex 31.81690216064453 58.20503234863281 11.50313949584961
    vertex 0.2202003002166748 85.43902587890625 11.50313949584961
  endloop
endfacet
facet normal 0.0 0.0 0.0
  outer loop
    vertex 0.2202003002166748 85.43902587890625 11.50313949584961
    vertex 14.998102188110352 83.97449493408203 11.50313949584961
    vertex 6.008701801300049 85.68966674804688 11.50313949584961
  endloop
endfacet
facet normal 0.0 0.0 0.0
  outer loop
    vertex -14.798055648803711 79.84123229980469 11.50313949584961
    vertex 31.81690216064453 58.20503234863281 11.50313949584961
    vertex -13.147659301757812 81.2161636352539 11.50313949584961
  endloop
endfacet
facet normal 0.0 0.0 0.0
  outer loop
    vertex -16.372774124145508 78.27741241455078 11.50313949584961
    vertex 31.81690216064453 58.20503234863281 11.50313949584961
    vertex -14.798055648803711 79.84123229980469 11.50313949584961
  endloop
endfacet
facet normal 0.0 0.0 0.0
  outer loop
    vertex -17.586055755615234 76.61369323730469 11.50313949584961
    vertex 31.81690216064453 58.20503234863281 11.50313949584961
    vertex -16.372774124145508 78.27741241455078 11.50313949584961
  endloop
endfacet
facet normal 0.0 0.0 0.0
  outer loop
    vertex -18.72910499572754 74.84100341796875 11.50313949584961
    vertex 31.81690216064453 58.20503234863281 11.50313949584961
    vertex -17.586055755615234 76.61369323730469 11.50313949584961
  endloop
endfacet
facet normal 0.0 0.0 0.0
  outer loop
    vertex -19.760147094726562 72.84551239013672 11.50313949584961
    vertex 31.81690216064453 58.20503234863281 11.50313949584961
    vertex -18.72910499572754 74.84100341796875 11.50313949584961
  endloop
endfacet
facet normal 0.0 0.0 0.0
  outer loop
    vertex -10.162897109985352 82.67463684082031 11.50313949584961
    vertex -13.147659301757812 81.2161636352539 11.50313949584961
    vertex 31.81690216064453 58.20503234863281 11.50313949584961
  endloop
endfacet
facet normal 0.0 0.0 0.0
  outer loop
    vertex -20.713699340820312 70.77191162109375 11.50313949584961
    vertex 31.81690216064453 58.20503234863281 11.50313949584961
    vertex -19.760147094726562 72.84551239013672 11.50313949584961
  endloop
endfacet
facet normal 0.0 0.0 0.0
  outer loop
    vertex -21.43657684326172 68.5403060913086 11.50313949584961
    vertex 31.81690216064453 58.20503234863281 11.50313949584961
    vertex -20.713699340820312 70.77191162109375 11.50313949584961
  endloop
endfacet
facet normal 0.0 0.0 0.0
  outer loop
    vertex -7.132122993469238 83.97449493408203 11.50313949584961
    vertex -10.162897109985352 82.67463684082031 11.50313949584961
    vertex 31.81690216064453 58.20503234863281 11.50313949584961
  endloop
endfacet
facet normal 0.0 0.0 0.0
  outer loop
    vertex 34.14659118652344 45.89970016479492 11.50313949584961
    vertex 33.57264709472656 50.10924530029297 11.50313949584961
    vertex -26.280004501342773 45.89970016479492 11.50313949584961
  endloop
endfacet
facet normal 0.0 0.0 0.0
  outer loop
    vertex -23.950315475463867 58.20503234863281 11.50313949584961
    vertex 31.81690216064453 58.20503234863281 11.50313949584961
    vertex -22.078332901000977 66.25057220458984 11.50313949584961
  endloop
endfacet
facet normal 0.0 0.0 0.0
  outer loop
    vertex -22.078332901000977 66.25057220458984 11.50313949584961
    vertex 31.81690216064453 58.20503234863281 11.50313949584961
    vertex -21.43657684326172 68.5403060913086 11.50313949584961
  endloop
endfacet
facet normal 0.0 0.0 0.0
  outer loop
    vertex -26.280004501342773 45.89970016479492 11.50313949584961
    vertex 33.57264709472656 50.10924530029297 11.50313949584961
    vertex -25.706058502197266 50.10924530029297 11.50313949584961
  endloop
endfacet
facet normal 0.0 0.0 0.0
  outer loop
    vertex -25.706058502197266 50.10924530029297 11.50313949584961
    vertex 33.57264709472656 50.10924530029297 11.50313949584961
    vertex -23.950315475463867 58.20503234863281 11.50313949584961
  endloop
endfacet
facet normal 0.0 0.0 0.0
  outer loop
    vertex -26.388376235961914 29.175350189208984 11.50313949584961
    vertex -25.738147735595703 24.570463180541992 11.50313949584961
    vertex 33.604736328125 24.570463180541992 11.50313949584961
  endloop
endfacet
facet normal 0.0 0.0 0.0
  outer loop
    vertex 32.766212463378906 20.042463302612305 11.50313949584961
    vertex 33.604736328125 24.570463180541992 11.50313949584961
    vertex -25.738147735595703 24.570463180541992 11.50313949584961
  endloop
endfacet
facet normal 0.0 0.0 0.0
  outer loop
    vertex -25.738147735595703 24.570463180541992 11.50313949584961
    vertex -24.900232315063477 20.042463302612305 11.50313949584961
    vertex 32.766212463378906 20.042463302612305 11.50313949584961
  endloop
endfacet
facet normal 0.0 0.0 0.0
  outer loop
    vertex 30.21433448791504 12.259074211120605 11.50313949584961
    vertex 32.766212463378906 20.042463302612305 11.50313949584961
    vertex -24.900232315063477 20.042463302612305 11.50313949584961
  endloop
endfacet
facet normal 0.0 0.0 0.0
  outer loop
    vertex -24.900232315063477 20.042463302612305 11.50313949584961
    vertex -22.34835433959961 12.259074211120605 11.50313949584961
    vertex 30.21433448791504 12.259074211120605 11.50313949584961
  endloop
endfacet
facet normal 0.0 0.0 0.0
  outer loop
    vertex -26.814598083496094 39.3737907409668 11.50313949584961
    vertex -26.82246971130371 37.08769226074219 11.50313949584961
    vertex 34.689056396484375 37.08769226074219 11.50313949584961
  endloop
endfacet
facet normal 0.0 0.0 0.0
  outer loop
    vertex 27.74297523498535 4.443599224090576 11.50313949584961
    vertex 30.21433448791504 12.259074211120605 11.50313949584961
    vertex -19.87639045715332 4.443599224090576 11.50313949584961
  endloop
endfacet
facet normal 0.0 0.0 0.0
  outer loop
    vertex 34.68118667602539 39.3737907409668 11.50313949584961
    vertex 34.59581756591797 41.654441833496094 11.50313949584961
    vertex -26.814598083496094 39.3737907409668 11.50313949584961
  endloop
endfacet
facet normal 0.0 0.0 0.0
  outer loop
    vertex -22.34835433959961 12.259074211120605 11.50313949584961
    vertex -19.87639045715332 4.443599224090576 11.50313949584961
    vertex 30.21433448791504 12.259074211120605 11.50313949584961
  endloop
endfacet
facet normal 0.0 0.0 0.0
  outer loop
    vertex -12.961793899536133 -66.72268676757812 11.50313949584961
    vertex 20.82777214050293 -66.72268676757812 11.50313949584961
    vertex -13.510915756225586 -63.025943756103516 11.50313949584961
  endloop
endfacet
facet normal 0.0 0.0 0.0
  outer loop
    vertex -13.510915756225586 -63.025943756103516 11.50313949584961
    vertex 21.820070266723633 -59.307403564453125 11.50313949584961
    vertex -13.954090118408203 -59.307403564453125 11.50313949584961
  endloop
endfacet
facet normal 0.0 0.0 0.0
  outer loop
    vertex 10.067493438720703 -82.68299102783203 11.50313949584961
    vertex 20.296810150146484 -70.32014465332031 11.50313949584961
    vertex 8.574506759643555 -83.07046508789062 11.50313949584961
  endloop
endfacet
facet normal 0.0 0.0 0.0
  outer loop
    vertex 5.506800174713135 -83.45611572265625 11.50313949584961
    vertex 20.296810150146484 -70.32014465332031 11.50313949584961
    vertex 3.9587202072143555 -83.45188903808594 11.50313949584961
  endloop
endfacet
facet normal 0.0 0.0 0.0
  outer loop
    vertex 7.059725761413574 -83.31566619873047 11.50313949584961
    vertex 20.296810150146484 -70.32014465332031 11.50313949584961
    vertex 5.506800174713135 -83.45611572265625 11.50313949584961
  endloop
endfacet
facet normal 0.0 0.0 0.0
  outer loop
    vertex 3.932691812515259 -83.44451904296875 11.50313949584961
    vertex 20.82777214050293 -66.72268676757812 11.50313949584961
    vertex 3.9066543579101562 -83.45188903808594 11.50313949584961
  endloop
endfacet
facet normal 0.0 0.0 0.0
  outer loop
    vertex 8.574506759643555 -83.07046508789062 11.50313949584961
    vertex 20.296810150146484 -70.32014465332031 11.50313949584961
    vertex 7.059725761413574 -83.31566619873047 11.50313949584961
  endloop
endfacet
facet normal 0.0 0.0 0.0
  outer loop
    vertex 3.9587202072143555 -83.45188903808594 11.50313949584961
    vertex 20.296810150146484 -70.32014465332031 11.50313949584961
    vertex 3.932691812515259 -83.44451904296875 11.50313949584961
  endloop
endfacet
facet normal 0.0 0.0 0.0
  outer loop
    vertex 13.159416198730469 -80.98536682128906 11.50313949584961
    vertex 20.296810150146484 -70.32014465332031 11.50313949584961
    vertex 10.067493438720703 -82.68299102783203 11.50313949584961
  endloop
endfacet
facet normal 0.0 0.0 0.0
  outer loop
    vertex 2.3591794967651367 -83.45611572265625 11.50313949584961
    vertex 3.9066543579101562 -83.45188903808594 11.50313949584961
    vertex 20.82777214050293 -66.72268676757812 11.50313949584961
  endloop
endfacet
facet normal 0.0 0.0 0.0
  outer loop
    vertex -0.7085270881652832 -83.07046508789062 11.50313949584961
    vertex 0.8062541484832764 -83.31566619873047 11.50313949584961
    vertex 20.82777214050293 -66.72268676757812 11.50313949584961
  endloop
endfacet
facet normal 0.0 0.0 0.0
  outer loop
    vertex -12.961793899536133 -66.72268676757812 11.50313949584961
    vertex -12.430830001831055 -70.32014465332031 11.50313949584961
    vertex 20.82777214050293 -66.72268676757812 11.50313949584961
  endloop
endfacet
facet normal 0.0 0.0 0.0
  outer loop
    vertex -12.430830001831055 -70.32014465332031 11.50313949584961
    vertex -11.75214672088623 -73.82132720947266 11.50313949584961
    vertex 20.82777214050293 -66.72268676757812 11.50313949584961
  endloop
endfacet
facet normal 0.0 0.0 0.0
  outer loop
    vertex -5.293435096740723 -80.98536682128906 11.50313949584961
    vertex -2.202118396759033 -82.68299102783203 11.50313949584961
    vertex 20.82777214050293 -66.72268676757812 11.50313949584961
  endloop
endfacet
facet normal 0.0 0.0 0.0
  outer loop
    vertex -0.7085270881652832 -83.07046508789062 11.50313949584961
    vertex 20.82777214050293 -66.72268676757812 11.50313949584961
    vertex -2.202118396759033 -82.68299102783203 11.50313949584961
  endloop
endfacet
facet normal 0.0 0.0 0.0
  outer loop
    vertex 2.3591794967651367 -83.45611572265625 11.50313949584961
    vertex 20.82777214050293 -66.72268676757812 11.50313949584961
    vertex 0.8062541484832764 -83.31566619873047 11.50313949584961
  endloop
endfacet
facet normal 0.0 0.0 0.0
  outer loop
    vertex -5.293435096740723 -80.98536682128906 11.50313949584961
    vertex 20.82777214050293 -66.72268676757812 11.50313949584961
    vertex -8.341767311096191 -79.11096954345703 11.50313949584961
  endloop
endfacet
facet normal 0.0 0.0 0.0
  outer loop
    vertex -11.75214672088623 -73.82132720947266 11.50313949584961
    vertex -10.707179069519043 -76.01419830322266 11.50313949584961
    vertex 20.82777214050293 -66.72268676757812 11.50313949584961
  endloop
endfacet
facet normal 0.0 0.0 0.0
  outer loop
    vertex -8.783731460571289 -78.79251098632812 11.50313949584961
    vertex 20.82777214050293 -66.72268676757812 11.50313949584961
    vertex -9.371603012084961 -78.33965301513672 11.50313949584961
  endloop
endfacet
facet normal 0.0 0.0 0.0
  outer loop
    vertex -8.341767311096191 -79.11096954345703 11.50313949584961
    vertex 20.82777214050293 -66.72268676757812 11.50313949584961
    vertex -8.783731460571289 -78.79251098632812 11.50313949584961
  endloop
endfacet
facet normal 0.0 0.0 0.0
  outer loop
    vertex -10.707179069519043 -76.01419830322266 11.50313949584961
    vertex -9.371603012084961 -78.33965301513672 11.50313949584961
    vertex 20.82777214050293 -66.72268676757812 11.50313949584961
  endloop
endfacet
facet normal 0.0 0.0 0.0
  outer loop
    vertex 12.138057708740234 85.06546783447266 0.0
    vertex 10.943824768066406 85.47595977783203 0.0
    vertex 10.943824768066406 85.47595977783203 11.50313949584961
  endloop
endfacet
facet normal 0.0 0.0 0.0
  outer loop
    vertex 6.008701801300049 85.68966674804688 11.50313949584961
    vertex 10.943824768066406 85.47595977783203 11.50313949584961
    vertex 10.943824768066406 85.47595977783203 0.0
  endloop
endfacet
facet normal 0.0 0.0 0.0
  outer loop
    vertex 6.008701801300049 85.68966674804688 0.0
    vertex 6.008701801300049 85.68966674804688 11.50313949584961
    vertex 10.943824768066406 85.47595977783203 0.0
  endloop
endfacet
facet normal 0.0 0.0 0.0
  outer loop
    vertex 0.2202003002166748 85.43902587890625 11.50313949584961
    vertex 6.008701801300049 85.68966674804688 11.50313949584961
    vertex 6.008701801300049 85.68966674804688 0.0
  endloop
endfacet
facet normal 0.0 0.0 0.0
  outer loop
    vertex 0.2202003002166748 85.43902587890625 11.50313949584961
    vertex 6.008701801300049 85.68966674804688 0.0
    vertex 0.2202003002166748 85.43902587890625 0.0
  endloop
endfacet
facet normal 0.0 0.0 0.0
  outer loop
    vertex -7.132122993469238 83.97449493408203 11.50313949584961
    vertex -7.132122993469238 83.97449493408203 0.0
    vertex -10.162897109985352 82.67463684082031 11.50313949584961
  endloop
endfacet
facet normal 0.0 0.0 0.0
  outer loop
    vertex -5.125065803527832 84.74009704589844 11.50313949584961
    vertex -5.125065803527832 84.74009704589844 0.0
    vertex -7.132122993469238 83.97449493408203 0.0
  endloop
endfacet
facet normal 0.0 0.0 0.0
  outer loop
    vertex -5.125065803527832 84.74009704589844 11.50313949584961
    vertex -7.132122993469238 83.97449493408203 0.0
    vertex -7.132122993469238 83.97449493408203 11.50313949584961
  endloop
endfacet
facet normal 0.0 0.0 0.0
  outer loop
    vertex -5.125065803527832 84.74009704589844 11.50313949584961
    vertex 0.2202003002166748 85.43902587890625 11.50313949584961
    vertex 0.2202003002166748 85.43902587890625 0.0
  endloop
endfacet
facet normal 0.0 0.0 0.0
  outer loop
    vertex -5.125065803527832 84.74009704589844 11.50313949584961
    vertex 0.2202003002166748 85.43902587890625 0.0
    vertex -5.125065803527832 84.74009704589844 0.0
  endloop
endfacet
facet normal 0.0 0.0 0.0
  outer loop
    vertex -20.713699340820312 70.77191162109375 11.50313949584961
    vertex -20.713699340820312 70.77191162109375 0.0
    vertex -21.43657684326172 68.5403060913086 0.0
  endloop
endfacet
facet normal 0.0 0.0 0.0
  outer loop
    vertex -20.713699340820312 70.77191162109375 11.50313949584961
    vertex -21.43657684326172 68.5403060913086 0.0
    vertex -21.43657684326172 68.5403060913086 11.50313949584961
  endloop
endfacet
facet normal 0.0 0.0 0.0
  outer loop
    vertex -19.760147094726562 72.84551239013672 11.50313949584961
    vertex -19.760147094726562 72.84551239013672 0.0
    vertex -20.713699340820312 70.77191162109375 0.0
  endloop
endfacet
facet normal 0.0 0.0 0.0
  outer loop
    vertex -19.760147094726562 72.84551239013672 11.50313949584961
    vertex -20.713699340820312 70.77191162109375 0.0
    vertex -20.713699340820312 70.77191162109375 11.50313949584961
  endloop
endfacet
facet normal 0.0 0.0 0.0
  outer loop
    vertex -18.72910499572754 74.84100341796875 11.50313949584961
    vertex -18.72910499572754 74.84100341796875 0.0
    vertex -19.760147094726562 72.84551239013672 0.0
  endloop
endfacet
facet normal 0.0 0.0 0.0
  outer loop
    vertex -18.72910499572754 74.84100341796875 11.50313949584961
    vertex -19.760147094726562 72.84551239013672 0.0
    vertex -19.760147094726562 72.84551239013672 11.50313949584961
  endloop
endfacet
facet normal 0.0 0.0 0.0
  outer loop
    vertex -17.586055755615234 76.61369323730469 11.50313949584961
    vertex -17.586055755615234 76.61369323730469 0.0
    vertex -18.72910499572754 74.84100341796875 0.0
  endloop
endfacet
facet normal 0.0 0.0 0.0
  outer loop
    vertex -17.586055755615234 76.61369323730469 11.50313949584961
    vertex -18.72910499572754 74.84100341796875 0.0
    vertex -18.72910499572754 74.84100341796875 11.50313949584961
  endloop
endfacet
facet normal 0.0 0.0 0.0
  outer loop
    vertex -16.372774124145508 78.27741241455078 11.50313949584961
    vertex -16.372774124145508 78.27741241455078 0.0
    vertex -17.586055755615234 76.61369323730469 0.0
  endloop
endfacet
facet normal 0.0 0.0 0.0
  outer loop
    vertex -16.372774124145508 78.27741241455078 11.50313949584961
    vertex -17.586055755615234 76.61369323730469 0.0
    vertex -17.586055755615234 76.61369323730469 11.50313949584961
  endloop
endfacet
facet normal 0.0 0.0 0.0
  outer loop
    vertex -14.798055648803711 79.84123229980469 11.50313949584961
    vertex -14.798055648803711 79.84123229980469 0.0
    vertex -16.372774124145508 78.27741241455078 0.0
  endloop
endfacet
facet normal 0.0 0.0 0.0
  outer loop
    vertex -14.798055648803711 79.84123229980469 11.50313949584961
    vertex -16.372774124145508 78.27741241455078 0.0
    vertex -16.372774124145508 78.27741241455078 11.50313949584961
  endloop
endfacet
facet normal 0.0 0.0 0.0
  outer loop
    vertex -13.147659301757812 81.2161636352539 11.50313949584961
    vertex -13.147659301757812 81.2161636352539 0.0
    vertex -14.798055648803711 79.84123229980469 0.0
  endloop
endfacet
facet normal 0.0 0.0 0.0
  outer loop
    vertex -13.147659301757812 81.2161636352539 11.50313949584961
    vertex -14.798055648803711 79.84123229980469 0.0
    vertex -14.798055648803711 79.84123229980469 11.50313949584961
  endloop
endfacet
facet normal 0.0 0.0 0.0
  outer loop
    vertex -10.162897109985352 82.67463684082031 11.50313949584961
    vertex -10.162897109985352 82.67463684082031 0.0
    vertex -13.147659301757812 81.2161636352539 0.0
  endloop
endfacet
facet normal 0.0 0.0 0.0
  outer loop
    vertex -10.162897109985352 82.67463684082031 11.50313949584961
    vertex -13.147659301757812 81.2161636352539 0.0
    vertex -13.147659301757812 81.2161636352539 11.50313949584961
  endloop
endfacet
facet normal 0.0 0.0 0.0
  outer loop
    vertex -7.132122993469238 83.97449493408203 0.0
    vertex -10.162897109985352 82.67463684082031 0.0
    vertex -10.162897109985352 82.67463684082031 11.50313949584961
  endloop
endfacet
facet normal 0.0 0.0 0.0
  outer loop
    vertex -25.706058502197266 50.10924530029297 11.50313949584961
    vertex -25.706058502197266 50.10924530029297 0.0
    vertex -26.280004501342773 45.89970016479492 11.50313949584961
  endloop
endfacet
facet normal 0.0 0.0 0.0
  outer loop
    vertex -23.950315475463867 58.20503234863281 11.50313949584961
    vertex -23.950315475463867 58.20503234863281 0.0
    vertex -25.706058502197266 50.10924530029297 0.0
  endloop
endfacet
facet normal 0.0 0.0 0.0
  outer loop
    vertex -23.950315475463867 58.20503234863281 11.50313949584961
    vertex -25.706058502197266 50.10924530029297 0.0
    vertex -25.706058502197266 50.10924530029297 11.50313949584961
  endloop
endfacet
facet normal 0.0 0.0 0.0
  outer loop
    vertex -22.078332901000977 66.25057220458984 11.50313949584961
    vertex -22.078332901000977 66.25057220458984 0.0
    vertex -23.950315475463867 58.20503234863281 0.0
  endloop
endfacet
facet normal 0.0 0.0 0.0
  outer loop
    vertex -22.078332901000977 66.25057220458984 11.50313949584961
    vertex -23.950315475463867 58.20503234863281 0.0
    vertex -23.950315475463867 58.20503234863281 11.50313949584961
  endloop
endfacet
facet normal 0.0 0.0 0.0
  outer loop
    vertex -22.078332901000977 66.25057220458984 11.50313949584961
    vertex -21.43657684326172 68.5403060913086 11.50313949584961
    vertex -22.078332901000977 66.25057220458984 0.0
  endloop
endfacet
facet normal 0.0 0.0 0.0
  outer loop
    vertex -21.43657684326172 68.5403060913086 0.0
    vertex -22.078332901000977 66.25057220458984 0.0
    vertex -21.43657684326172 68.5403060913086 11.50313949584961
  endloop
endfacet
facet normal 0.0 0.0 0.0
  outer loop
    vertex -26.388376235961914 29.175350189208984 11.50313949584961
    vertex -26.388376235961914 29.175350189208984 0.0
    vertex -25.738147735595703 24.570463180541992 11.50313949584961
  endloop
endfacet
facet normal 0.0 0.0 0.0
  outer loop
    vertex -26.655370712280273 33.123348236083984 11.50313949584961
    vertex -26.655370712280273 33.123348236083984 0.0
    vertex -26.388376235961914 29.175350189208984 0.0
  endloop
endfacet
facet normal 0.0 0.0 0.0
  outer loop
    vertex -26.655370712280273 33.123348236083984 11.50313949584961
    vertex -26.388376235961914 29.175350189208984 0.0
    vertex -26.388376235961914 29.175350189208984 11.50313949584961
  endloop
endfacet
facet normal 0.0 0.0 0.0
  outer loop
    vertex -26.82246971130371 37.08769226074219 11.50313949584961
    vertex -26.82246971130371 37.08769226074219 0.0
    vertex -26.655370712280273 33.123348236083984 0.0
  endloop
endfacet
facet normal 0.0 0.0 0.0
  outer loop
    vertex -26.82246971130371 37.08769226074219 11.50313949584961
    vertex -26.655370712280273 33.123348236083984 0.0
    vertex -26.655370712280273 33.123348236083984 11.50313949584961
  endloop
endfacet
facet normal 0.0 0.0 0.0
  outer loop
    vertex -26.814598083496094 39.3737907409668 11.50313949584961
    vertex -26.814598083496094 39.3737907409668 0.0
    vertex -26.82246971130371 37.08769226074219 0.0
  endloop
endfacet
facet normal 0.0 0.0 0.0
  outer loop
    vertex -26.814598083496094 39.3737907409668 11.50313949584961
    vertex -26.82246971130371 37.08769226074219 0.0
    vertex -26.82246971130371 37.08769226074219 11.50313949584961
  endloop
endfacet
facet normal 0.0 0.0 0.0
  outer loop
    vertex -26.72923469543457 41.654441833496094 11.50313949584961
    vertex -26.72923469543457 41.654441833496094 0.0
    vertex -26.814598083496094 39.3737907409668 0.0
  endloop
endfacet
facet normal 0.0 0.0 0.0
  outer loop
    vertex -26.72923469543457 41.654441833496094 11.50313949584961
    vertex -26.814598083496094 39.3737907409668 0.0
    vertex -26.814598083496094 39.3737907409668 11.50313949584961
  endloop
endfacet
facet normal 0.0 0.0 0.0
  outer loop
    vertex -26.280004501342773 45.89970016479492 11.50313949584961
    vertex -26.280004501342773 45.89970016479492 0.0
    vertex -26.72923469543457 41.654441833496094 0.0
  endloop
endfacet
facet normal 0.0 0.0 0.0
  outer loop
    vertex -26.280004501342773 45.89970016479492 11.50313949584961
    vertex -26.72923469543457 41.654441833496094 0.0
    vertex -26.72923469543457 41.654441833496094 11.50313949584961
  endloop
endfacet
facet normal 0.0 0.0 0.0
  outer loop
    vertex -25.706058502197266 50.10924530029297 0.0
    vertex -26.280004501342773 45.89970016479492 0.0
    vertex -26.280004501342773 45.89970016479492 11.50313949584961
  endloop
endfacet
facet normal 0.0 0.0 0.0
  outer loop
    vertex -24.900232315063477 20.042463302612305 11.50313949584961
    vertex -24.900232315063477 20.042463302612305 0.0
    vertex -22.34835433959961 12.259074211120605 0.0
  endloop
endfacet
facet normal 0.0 0.0 0.0
  outer loop
    vertex -24.900232315063477 20.042463302612305 11.50313949584961
    vertex -22.34835433959961 12.259074211120605 0.0
    vertex -22.34835433959961 12.259074211120605 11.50313949584961
  endloop
endfacet
facet normal 0.0 0.0 0.0
  outer loop
    vertex -24.900232315063477 20.042463302612305 0.0
    vertex -24.900232315063477 20.042463302612305 11.50313949584961
    vertex -25.738147735595703 24.570463180541992 11.50313949584961
  endloop
endfacet
facet normal 0.0 0.0 0.0
  outer loop
    vertex -24.900232315063477 20.042463302612305 0.0
    vertex -25.738147735595703 24.570463180541992 11.50313949584961
    vertex -25.738147735595703 24.570463180541992 0.0
  endloop
endfacet
facet normal 0.0 0.0 0.0
  outer loop
    vertex -26.388376235961914 29.175350189208984 0.0
    vertex -25.738147735595703 24.570463180541992 0.0
    vertex -25.738147735595703 24.570463180541992 11.50313949584961
  endloop
endfacet
facet normal 0.0 0.0 0.0
  outer loop
    vertex -19.87639045715332 4.443599224090576 0.0
    vertex -22.34835433959961 12.259074211120605 11.50313949584961
    vertex -22.34835433959961 12.259074211120605 0.0
  endloop
endfacet
facet normal 0.0 0.0 0.0
  outer loop
    vertex -19.303050994873047 0.849170982837677 11.50313949584961
    vertex -19.303050994873047 0.849170982837677 0.0
    vertex -17.386262893676758 -10.115742683410645 0.0
  endloop
endfacet
facet normal 0.0 0.0 0.0
  outer loop
    vertex -19.303050994873047 0.849170982837677 11.50313949584961
    vertex -17.386262893676758 -10.115742683410645 0.0
    vertex -17.386262893676758 -10.115742683410645 11.50313949584961
  endloop
endfacet
facet normal 0.0 0.0 0.0
  outer loop
    vertex -19.87639045715332 4.443599224090576 11.50313949584961
    vertex -22.34835433959961 12.259074211120605 11.50313949584961
    vertex -19.87639045715332 4.443599224090576 0.0
  endloop
endfacet
facet normal 0.0 0.0 0.0
  outer loop
    vertex -19.87639045715332 4.443599224090576 11.50313949584961
    vertex -19.87639045715332 4.443599224090576 0.0
    vertex -19.596078872680664 2.914287567138672 0.0
  endloop
endfacet
facet normal 0.0 0.0 0.0
  outer loop
    vertex -19.87639045715332 4.443599224090576 11.50313949584961
    vertex -19.596078872680664 2.914287567138672 0.0
    vertex -19.596078872680664 2.914287567138672 11.50313949584961
  endloop
endfacet
facet normal 0.0 0.0 0.0
  outer loop
    vertex -19.596078872680664 2.914287567138672 11.50313949584961
    vertex -19.596078872680664 2.914287567138672 0.0
    vertex -19.303050994873047 0.849170982837677 0.0
  endloop
endfacet
facet normal 0.0 0.0 0.0
  outer loop
    vertex -19.596078872680664 2.914287567138672 11.50313949584961
    vertex -19.303050994873047 0.849170982837677 0.0
    vertex -19.303050994873047 0.849170982837677 11.50313949584961
  endloop
endfacet
facet normal 0.0 0.0 0.0
  outer loop
    vertex -17.386262893676758 -10.115742683410645 0.0
    vertex -15.969558715820312 -19.203222274780273 0.0
    vertex -15.969558715820312 -19.203222274780273 11.50313949584961
  endloop
endfacet
facet normal 0.0 0.0 0.0
  outer loop
    vertex -17.386262893676758 -10.115742683410645 0.0
    vertex -15.969558715820312 -19.203222274780273 11.50313949584961
    vertex -17.386262893676758 -10.115742683410645 11.50313949584961
  endloop
endfacet
facet normal 0.0 0.0 0.0
  outer loop
    vertex -15.969558715820312 -19.203222274780273 11.50313949584961
    vertex -15.969558715820312 -19.203222274780273 0.0
    vertex -15.21701431274414 -27.320201873779297 0.0
  endloop
endfacet
facet normal 0.0 0.0 0.0
  outer loop
    vertex -15.969558715820312 -19.203222274780273 11.50313949584961
    vertex -15.21701431274414 -27.320201873779297 0.0
    vertex -15.21701431274414 -27.320201873779297 11.50313949584961
  endloop
endfacet
facet normal 0.0 0.0 0.0
  outer loop
    vertex -15.21701431274414 -27.320201873779297 11.50313949584961
    vertex -15.21701431274414 -27.320201873779297 0.0
    vertex -14.667282104492188 -35.48016357421875 0.0
  endloop
endfacet
facet normal 0.0 0.0 0.0
  outer loop
    vertex -15.21701431274414 -27.320201873779297 11.50313949584961
    vertex -14.667282104492188 -35.48016357421875 0.0
    vertex -14.667282104492188 -35.48016357421875 11.50313949584961
  endloop
endfacet
facet normal 0.0 0.0 0.0
  outer loop
    vertex -12.430830001831055 -70.32014465332031 11.50313949584961
    vertex -12.430830001831055 -70.32014465332031 0.0
    vertex -11.75214672088623 -73.82132720947266 11.50313949584961
  endloop
endfacet
facet normal 0.0 0.0 0.0
  outer loop
    vertex -13.510915756225586 -63.025943756103516 11.50313949584961
    vertex -13.510915756225586 -63.025943756103516 0.0
    vertex -12.961793899536133 -66.72268676757812 0.0
  endloop
endfacet
facet normal 0.0 0.0 0.0
  outer loop
    vertex -13.510915756225586 -63.025943756103516 11.50313949584961
    vertex -12.961793899536133 -66.72268676757812 0.0
    vertex -12.961793899536133 -66.72268676757812 11.50313949584961
  endloop
endfacet
facet normal 0.0 0.0 0.0
  outer loop
    vertex -13.510915756225586 -63.025943756103516 0.0
    vertex -13.510915756225586 -63.025943756103516 11.50313949584961
    vertex -13.954090118408203 -59.307403564453125 11.50313949584961
  endloop
endfacet
facet normal 0.0 0.0 0.0
  outer loop
    vertex -12.961793899536133 -66.72268676757812 11.50313949584961
    vertex -12.961793899536133 -66.72268676757812 0.0
    vertex -12.430830001831055 -70.32014465332031 0.0
  endloop
endfacet
facet normal 0.0 0.0 0.0
  outer loop
    vertex -12.961793899536133 -66.72268676757812 11.50313949584961
    vertex -12.430830001831055 -70.32014465332031 0.0
    vertex -12.430830001831055 -70.32014465332031 11.50313949584961
  endloop
endfacet
facet normal 0.0 0.0 0.0
  outer loop
    vertex -13.510915756225586 -63.025943756103516 0.0
    vertex -13.954090118408203 -59.307403564453125 11.50313949584961
    vertex -13.954090118408203 -59.307403564453125 0.0
  endloop
endfacet
facet normal 0.0 0.0 0.0
  outer loop
    vertex 27.462663650512695 2.914287567138672 11.50313949584961
    vertex 27.74297523498535 4.443599224090576 11.50313949584961
    vertex -19.87639045715332 4.443599224090576 11.50313949584961
  endloop
endfacet
facet normal 0.0 0.0 0.0
  outer loop
    vertex -19.303050994873047 0.849170982837677 11.50313949584961
    vertex 27.462663650512695 2.914287567138672 11.50313949584961
    vertex -19.596078872680664 2.914287567138672 11.50313949584961
  endloop
endfacet
facet normal 0.0 0.0 0.0
  outer loop
    vertex -19.596078872680664 2.914287567138672 11.50313949584961
    vertex 27.462663650512695 2.914287567138672 11.50313949584961
    vertex -19.87639045715332 4.443599224090576 11.50313949584961
  endloop
endfacet
facet normal 0.0 0.0 0.0
  outer loop
    vertex -17.386262893676758 -10.115742683410645 11.50313949584961
    vertex 27.169635772705078 0.849170982837677 11.50313949584961
    vertex -19.303050994873047 0.849170982837677 11.50313949584961
  endloop
endfacet
facet normal 0.0 0.0 0.0
  outer loop
    vertex 21.377500534057617 -63.025943756103516 11.50313949584961
    vertex -13.510915756225586 -63.025943756103516 11.50313949584961
    vertex 20.82777214050293 -66.72268676757812 11.50313949584961
  endloop
endfacet
facet normal 0.0 0.0 0.0
  outer loop
    vertex -15.21701431274414 -27.320201873779297 11.50313949584961
    vertex 23.835540771484375 -19.203222274780273 11.50313949584961
    vertex -15.969558715820312 -19.203222274780273 11.50313949584961
  endloop
endfacet
facet normal 0.0 0.0 0.0
  outer loop
    vertex -17.386262893676758 -10.115742683410645 11.50313949584961
    vertex -15.969558715820312 -19.203222274780273 11.50313949584961
    vertex 23.835540771484375 -19.203222274780273 11.50313949584961
  endloop
endfacet
facet normal 0.0 0.0 0.0
  outer loop
    vertex 20.82777214050293 -66.72268676757812 11.50313949584961
    vertex 3.932691812515259 -83.44451904296875 11.50313949584961
    vertex 20.296810150146484 -70.32014465332031 11.50313949584961
  endloop
endfacet
facet normal 0.0 0.0 0.0
  outer loop
    vertex -14.317951202392578 -47.39680862426758 11.50313949584961
    vertex -13.954090118408203 -59.307403564453125 11.50313949584961
    vertex 21.820070266723633 -59.307403564453125 11.50313949584961
  endloop
endfacet
facet normal 0.0 0.0 0.0
  outer loop
    vertex 13.159416198730469 -80.98536682128906 0.0
    vertex -12.961793899536133 -66.72268676757812 0.0
    vertex 16.207748413085938 -79.11096954345703 0.0
  endloop
endfacet
facet normal 0.0 0.0 0.0
  outer loop
    vertex 10.067493438720703 -82.68299102783203 0.0
    vertex -12.961793899536133 -66.72268676757812 0.0
    vertex 13.159416198730469 -80.98536682128906 0.0
  endloop
endfacet
facet normal 0.0 0.0 0.0
  outer loop
    vertex 8.574506759643555 -83.07046508789062 0.0
    vertex -12.961793899536133 -66.72268676757812 0.0
    vertex 10.067493438720703 -82.68299102783203 0.0
  endloop
endfacet
facet normal 0.0 0.0 0.0
  outer loop
    vertex -12.961793899536133 -66.72268676757812 0.0
    vertex -13.510915756225586 -63.025943756103516 0.0
    vertex 20.82777214050293 -66.72268676757812 0.0
  endloop
endfacet
facet normal 0.0 0.0 0.0
  outer loop
    vertex 19.618732452392578 -73.82132720947266 0.0
    vertex 18.573158264160156 -76.01419830322266 0.0
    vertex -12.961793899536133 -66.72268676757812 0.0
  endloop
endfacet
facet normal 0.0 0.0 0.0
  outer loop
    vertex 20.296810150146484 -70.32014465332031 0.0
    vertex 19.618732452392578 -73.82132720947266 0.0
    vertex -12.961793899536133 -66.72268676757812 0.0
  endloop
endfacet
facet normal 0.0 0.0 0.0
  outer loop
    vertex 20.82777214050293 -66.72268676757812 0.0
    vertex 20.296810150146484 -70.32014465332031 0.0
    vertex -12.961793899536133 -66.72268676757812 0.0
  endloop
endfacet
facet normal 0.0 0.0 0.0
  outer loop
    vertex 8.574506759643555 -83.07046508789062 0.0
    vertex 7.059725761413574 -83.31566619873047 0.0
    vertex -12.961793899536133 -66.72268676757812 0.0
  endloop
endfacet
facet normal 0.0 0.0 0.0
  outer loop
    vertex 2.3591794967651367 -83.45611572265625 0.0
    vertex -12.430830001831055 -70.32014465332031 0.0
    vertex 3.9066543579101562 -83.45188903808594 0.0
  endloop
endfacet
facet normal 0.0 0.0 0.0
  outer loop
    vertex -12.961793899536133 -66.72268676757812 0.0
    vertex 3.932691812515259 -83.44451904296875 0.0
    vertex -12.430830001831055 -70.32014465332031 0.0
  endloop
endfacet
facet normal 0.0 0.0 0.0
  outer loop
    vertex -5.293435096740723 -80.98536682128906 0.0
    vertex -12.430830001831055 -70.32014465332031 0.0
    vertex -2.202118396759033 -82.68299102783203 0.0
  endloop
endfacet
facet normal 0.0 0.0 0.0
  outer loop
    vertex -2.202118396759033 -82.68299102783203 0.0
    vertex -12.430830001831055 -70.32014465332031 0.0
    vertex -0.7085270881652832 -83.07046508789062 0.0
  endloop
endfacet
facet normal 0.0 0.0 0.0
  outer loop
    vertex -8.341767311096191 -79.11096954345703 0.0
    vertex -10.707179069519043 -76.01419830322266 0.0
    vertex -5.293435096740723 -80.98536682128906 0.0
  endloop
endfacet
facet normal 0.0 0.0 0.0
  outer loop
    vertex -8.783731460571289 -78.79251098632812 0.0
    vertex -10.707179069519043 -76.01419830322266 0.0
    vertex -8.341767311096191 -79.11096954345703 0.0
  endloop
endfacet
facet normal 0.0 0.0 0.0
  outer loop
    vertex -0.7085270881652832 -83.07046508789062 0.0
    vertex -12.430830001831055 -70.32014465332031 0.0
    vertex 0.8062541484832764 -83.31566619873047 0.0
  endloop
endfacet
facet normal 0.0 0.0 0.0
  outer loop
    vertex 0.8062541484832764 -83.31566619873047 0.0
    vertex -12.430830001831055 -70.32014465332031 0.0
    vertex 2.3591794967651367 -83.45611572265625 0.0
  endloop
endfacet
facet normal 0.0 0.0 0.0
  outer loop
    vertex -10.707179069519043 -76.01419830322266 0.0
    vertex -11.75214672088623 -73.82132720947266 0.0
    vertex -5.293435096740723 -80.98536682128906 0.0
  endloop
endfacet
facet normal 0.0 0.0 0.0
  outer loop
    vertex -12.430830001831055 -70.32014465332031 0.0
    vertex -5.293435096740723 -80.98536682128906 0.0
    vertex -11.75214672088623 -73.82132720947266 0.0
  endloop
endfacet
facet normal 0.0 0.0 0.0
  outer loop
    vertex -9.371603012084961 -78.33965301513672 0.0
    vertex -10.707179069519043 -76.01419830322266 0.0
    vertex -8.783731460571289 -78.79251098632812 0.0
  endloop
endfacet
facet normal 0.0 0.0 0.0
  outer loop
    vertex 7.059725761413574 -83.31566619873047 0.0
    vertex 5.506800174713135 -83.45611572265625 0.0
    vertex -12.961793899536133 -66.72268676757812 0.0
  endloop
endfacet
facet normal 0.0 0.0 0.0
  outer loop
    vertex 3.9066543579101562 -83.45188903808594 0.0
    vertex -12.430830001831055 -70.32014465332031 0.0
    vertex 3.932691812515259 -83.44451904296875 0.0
  endloop
endfacet
facet normal 0.0 0.0 0.0
  outer loop
    vertex 3.932691812515259 -83.44451904296875 0.0
    vertex -12.961793899536133 -66.72268676757812 0.0
    vertex 3.9587202072143555 -83.45188903808594 0.0
  endloop
endfacet
facet normal 0.0 0.0 0.0
  outer loop
    vertex 5.506800174713135 -83.45611572265625 0.0
    vertex 3.9587202072143555 -83.45188903808594 0.0
    vertex -12.961793899536133 -66.72268676757812 0.0
  endloop
endfacet
facet normal 0.0 0.0 0.0
  outer loop
    vertex 27.626733779907227 72.84551239013672 11.50313949584961
    vertex 0.2202003002166748 85.43902587890625 11.50313949584961
    vertex 28.58028221130371 70.77191162109375 11.50313949584961
  endloop
endfacet
facet normal 0.0 0.0 0.0
  outer loop
    vertex 26.595687866210938 74.84100341796875 11.50313949584961
    vertex 0.2202003002166748 85.43902587890625 11.50313949584961
    vertex 27.626733779907227 72.84551239013672 11.50313949584961
  endloop
endfacet
facet normal 0.0 0.0 0.0
  outer loop
    vertex 25.45203399658203 76.61369323730469 11.50313949584961
    vertex 0.2202003002166748 85.43902587890625 11.50313949584961
    vertex 26.595687866210938 74.84100341796875 11.50313949584961
  endloop
endfacet
facet normal 0.0 0.0 0.0
  outer loop
    vertex 24.23875617980957 78.27741241455078 11.50313949584961
    vertex 0.2202003002166748 85.43902587890625 11.50313949584961
    vertex 25.45203399658203 76.61369323730469 11.50313949584961
  endloop
endfacet
facet normal 0.0 0.0 0.0
  outer loop
    vertex 22.66403579711914 79.84123229980469 11.50313949584961
    vertex 0.2202003002166748 85.43902587890625 11.50313949584961
    vertex 24.23875617980957 78.27741241455078 11.50313949584961
  endloop
endfacet
facet normal 0.0 0.0 0.0
  outer loop
    vertex 28.58028221130371 70.77191162109375 11.50313949584961
    vertex 0.2202003002166748 85.43902587890625 11.50313949584961
    vertex 29.303163528442383 68.5403060913086 11.50313949584961
  endloop
endfacet
facet normal 0.0 0.0 0.0
  outer loop
    vertex 21.014244079589844 81.2161636352539 11.50313949584961
    vertex 0.2202003002166748 85.43902587890625 11.50313949584961
    vertex 22.66403579711914 79.84123229980469 11.50313949584961
  endloop
endfacet
facet normal 0.0 0.0 0.0
  outer loop
    vertex 18.02887725830078 82.67463684082031 11.50313949584961
    vertex 0.2202003002166748 85.43902587890625 11.50313949584961
    vertex 21.014244079589844 81.2161636352539 11.50313949584961
  endloop
endfacet
facet normal 0.0 0.0 0.0
  outer loop
    vertex 14.998102188110352 83.97449493408203 11.50313949584961
    vertex 0.2202003002166748 85.43902587890625 11.50313949584961
    vertex 18.02887725830078 82.67463684082031 11.50313949584961
  endloop
endfacet
facet normal 0.0 0.0 0.0
  outer loop
    vertex 12.138057708740234 85.06546783447266 11.50313949584961
    vertex 6.008701801300049 85.68966674804688 11.50313949584961
    vertex 14.998102188110352 83.97449493408203 11.50313949584961
  endloop
endfacet
facet normal 0.0 0.0 0.0
  outer loop
    vertex 10.943824768066406 85.47595977783203 11.50313949584961
    vertex 6.008701801300049 85.68966674804688 11.50313949584961
    vertex 12.138057708740234 85.06546783447266 11.50313949584961
  endloop
endfacet
facet normal 0.0 0.0 0.0
  outer loop
    vertex 29.303163528442383 68.5403060913086 11.50313949584961
    vertex 0.2202003002166748 85.43902587890625 11.50313949584961
    vertex 29.944917678833008 66.25057220458984 11.50313949584961
  endloop
endfacet
facet normal 0.0 0.0 0.0
  outer loop
    vertex 31.81690216064453 58.20503234863281 11.50313949584961
    vertex -23.950315475463867 58.20503234863281 11.50313949584961
    vertex 33.57264709472656 50.10924530029297 11.50313949584961
  endloop
endfacet
facet normal 0.0 0.0 0.0
  outer loop
    vertex 29.944917678833008 66.25057220458984 11.50313949584961
    vertex 0.2202003002166748 85.43902587890625 11.50313949584961
    vertex 31.81690216064453 58.20503234863281 11.50313949584961
  endloop
endfacet
facet normal 0.0 0.0 0.0
  outer loop
    vertex -5.125065803527832 84.74009704589844 11.50313949584961
    vertex -7.132122993469238 83.97449493408203 11.50313949584961
    vertex 31.81690216064453 58.20503234863281 11.50313949584961
  endloop
endfacet
facet normal 0.0 0.0 0.0
  outer loop
    vertex 34.14659118652344 45.89970016479492 11.50313949584961
    vertex -26.280004501342773 45.89970016479492 11.50313949584961
    vertex 34.59581756591797 41.654441833496094 11.50313949584961
  endloop
endfacet
facet normal 0.0 0.0 0.0
  outer loop
    vertex -26.280004501342773 45.89970016479492 11.50313949584961
    vertex -26.72923469543457 41.654441833496094 11.50313949584961
    vertex 34.59581756591797 41.654441833496094 11.50313949584961
  endloop
endfacet
facet normal 0.0 0.0 0.0
  outer loop
    vertex -26.72923469543457 41.654441833496094 11.50313949584961
    vertex -26.814598083496094 39.3737907409668 11.50313949584961
    vertex 34.59581756591797 41.654441833496094 11.50313949584961
  endloop
endfacet
facet normal 0.0 0.0 0.0
  outer loop
    vertex 34.689056396484375 37.08769226074219 11.50313949584961
    vertex 34.68118667602539 39.3737907409668 11.50313949584961
    vertex -26.814598083496094 39.3737907409668 11.50313949584961
  endloop
endfacet
facet normal 0.0 0.0 0.0
  outer loop
    vertex -26.82246971130371 37.08769226074219 11.50313949584961
    vertex -26.655370712280273 33.123348236083984 11.50313949584961
    vertex 34.689056396484375 37.08769226074219 11.50313949584961
  endloop
endfacet
facet normal 0.0 0.0 0.0
  outer loop
    vertex 34.52195739746094 33.123348236083984 11.50313949584961
    vertex 34.689056396484375 37.08769226074219 11.50313949584961
    vertex -26.655370712280273 33.123348236083984 11.50313949584961
  endloop
endfacet
facet normal 0.0 0.0 0.0
  outer loop
    vertex 33.604736328125 24.570463180541992 11.50313949584961
    vertex 34.25496292114258 29.175350189208984 11.50313949584961
    vertex -26.388376235961914 29.175350189208984 11.50313949584961
  endloop
endfacet
facet normal 0.0 0.0 0.0
  outer loop
    vertex -26.655370712280273 33.123348236083984 11.50313949584961
    vertex -26.388376235961914 29.175350189208984 11.50313949584961
    vertex 34.52195739746094 33.123348236083984 11.50313949584961
  endloop
endfacet
facet normal 0.0 0.0 0.0
  outer loop
    vertex 34.25496292114258 29.175350189208984 11.50313949584961
    vertex 34.52195739746094 33.123348236083984 11.50313949584961
    vertex -26.388376235961914 29.175350189208984 11.50313949584961
  endloop
endfacet
facet normal 0.0 0.0 0.0
  outer loop
    vertex 25.25284767150879 -10.115742683410645 11.50313949584961
    vertex 27.169635772705078 0.849170982837677 11.50313949584961
    vertex -17.386262893676758 -10.115742683410645 11.50313949584961
  endloop
endfacet
facet normal 0.0 0.0 0.0
  outer loop
    vertex 27.462663650512695 2.914287567138672 11.50313949584961
    vertex -19.303050994873047 0.849170982837677 11.50313949584961
    vertex 27.169635772705078 0.849170982837677 11.50313949584961
  endloop
endfacet
facet normal 0.0 0.0 0.0
  outer loop
    vertex 23.835540771484375 -19.203222274780273 11.50313949584961
    vertex 25.25284767150879 -10.115742683410645 11.50313949584961
    vertex -17.386262893676758 -10.115742683410645 11.50313949584961
  endloop
endfacet
facet normal 0.0 0.0 0.0
  outer loop
    vertex -14.667282104492188 -35.48016357421875 11.50313949584961
    vertex 22.53326416015625 -35.48016357421875 11.50313949584961
    vertex -15.21701431274414 -27.320201873779297 11.50313949584961
  endloop
endfacet
facet normal 0.0 0.0 0.0
  outer loop
    vertex 23.835540771484375 -19.203222274780273 11.50313949584961
    vertex -15.21701431274414 -27.320201873779297 11.50313949584961
    vertex 23.083599090576172 -27.320201873779297 11.50313949584961
  endloop
endfacet
facet normal 0.0 0.0 0.0
  outer loop
    vertex 23.083599090576172 -27.320201873779297 11.50313949584961
    vertex -15.21701431274414 -27.320201873779297 11.50313949584961
    vertex 22.53326416015625 -35.48016357421875 11.50313949584961
  endloop
endfacet
facet normal 0.0 0.0 0.0
  outer loop
    vertex 21.820070266723633 -59.307403564453125 11.50313949584961
    vertex -13.510915756225586 -63.025943756103516 11.50313949584961
    vertex 21.377500534057617 -63.025943756103516 11.50313949584961
  endloop
endfacet
facet normal 0.0 0.0 0.0
  outer loop
    vertex 22.18453598022461 -47.39680862426758 11.50313949584961
    vertex 22.53326416015625 -35.48016357421875 11.50313949584961
    vertex -14.317951202392578 -47.39680862426758 11.50313949584961
  endloop
endfacet
facet normal 0.0 0.0 0.0
  outer loop
    vertex 21.820070266723633 -59.307403564453125 11.50313949584961
    vertex 22.18453598022461 -47.39680862426758 11.50313949584961
    vertex -14.317951202392578 -47.39680862426758 11.50313949584961
  endloop
endfacet
facet normal 0.0 0.0 0.0
  outer loop
    vertex -14.667282104492188 -35.48016357421875 11.50313949584961
    vertex -14.317951202392578 -47.39680862426758 11.50313949584961
    vertex 22.53326416015625 -35.48016357421875 11.50313949584961
  endloop
endfacet
facet normal 0.0 0.0 0.0
  outer loop
    vertex 17.237581253051758 -78.33965301513672 11.50313949584961
    vertex 18.573158264160156 -76.01419830322266 11.50313949584961
    vertex 16.64971160888672 -78.79251098632812 11.50313949584961
  endloop
endfacet
facet normal 0.0 0.0 0.0
  outer loop
    vertex 16.64971160888672 -78.79251098632812 11.50313949584961
    vertex 18.573158264160156 -76.01419830322266 11.50313949584961
    vertex 16.207748413085938 -79.11096954345703 11.50313949584961
  endloop
endfacet
facet normal 0.0 0.0 0.0
  outer loop
    vertex 18.573158264160156 -76.01419830322266 11.50313949584961
    vertex 19.618732452392578 -73.82132720947266 11.50313949584961
    vertex 13.159416198730469 -80.98536682128906 11.50313949584961
  endloop
endfacet
facet normal 0.0 0.0 0.0
  outer loop
    vertex 16.207748413085938 -79.11096954345703 11.50313949584961
    vertex 18.573158264160156 -76.01419830322266 11.50313949584961
    vertex 13.159416198730469 -80.98536682128906 11.50313949584961
  endloop
endfacet
facet normal 0.0 0.0 0.0
  outer loop
    vertex 20.296810150146484 -70.32014465332031 11.50313949584961
    vertex 13.159416198730469 -80.98536682128906 11.50313949584961
    vertex 19.618732452392578 -73.82132720947266 11.50313949584961
  endloop
endfacet
facet normal 0.0 0.0 0.0
  outer loop
    vertex 29.944917678833008 66.25057220458984 11.50313949584961
    vertex 29.944917678833008 66.25057220458984 0.0
    vertex 29.303163528442383 68.5403060913086 11.50313949584961
  endloop
endfacet
facet normal 0.0 0.0 0.0
  outer loop
    vertex 29.303163528442383 68.5403060913086 0.0
    vertex 29.303163528442383 68.5403060913086 11.50313949584961
    vertex 29.944917678833008 66.25057220458984 0.0
  endloop
endfacet
facet normal 0.0 0.0 0.0
  outer loop
    vertex 28.58028221130371 70.77191162109375 0.0
    vertex 28.58028221130371 70.77191162109375 11.50313949584961
    vertex 29.303163528442383 68.5403060913086 11.50313949584961
  endloop
endfacet
facet normal 0.0 0.0 0.0
  outer loop
    vertex 28.58028221130371 70.77191162109375 0.0
    vertex 29.303163528442383 68.5403060913086 11.50313949584961
    vertex 29.303163528442383 68.5403060913086 0.0
  endloop
endfacet
facet normal 0.0 0.0 0.0
  outer loop
    vertex 27.626733779907227 72.84551239013672 0.0
    vertex 27.626733779907227 72.84551239013672 11.50313949584961
    vertex 28.58028221130371 70.77191162109375 11.50313949584961
  endloop
endfacet
facet normal 0.0 0.0 0.0
  outer loop
    vertex 27.626733779907227 72.84551239013672 0.0
    vertex 28.58028221130371 70.77191162109375 11.50313949584961
    vertex 28.58028221130371 70.77191162109375 0.0
  endloop
endfacet
facet normal 0.0 0.0 0.0
  outer loop
    vertex 26.595687866210938 74.84100341796875 0.0
    vertex 26.595687866210938 74.84100341796875 11.50313949584961
    vertex 27.626733779907227 72.84551239013672 11.50313949584961
  endloop
endfacet
facet normal 0.0 0.0 0.0
  outer loop
    vertex 26.595687866210938 74.84100341796875 0.0
    vertex 27.626733779907227 72.84551239013672 11.50313949584961
    vertex 27.626733779907227 72.84551239013672 0.0
  endloop
endfacet
facet normal 0.0 0.0 0.0
  outer loop
    vertex 25.45203399658203 76.61369323730469 0.0
    vertex 25.45203399658203 76.61369323730469 11.50313949584961
    vertex 26.595687866210938 74.84100341796875 11.50313949584961
  endloop
endfacet
facet normal 0.0 0.0 0.0
  outer loop
    vertex 25.45203399658203 76.61369323730469 0.0
    vertex 26.595687866210938 74.84100341796875 11.50313949584961
    vertex 26.595687866210938 74.84100341796875 0.0
  endloop
endfacet
facet normal 0.0 0.0 0.0
  outer loop
    vertex 24.23875617980957 78.27741241455078 0.0
    vertex 24.23875617980957 78.27741241455078 11.50313949584961
    vertex 25.45203399658203 76.61369323730469 11.50313949584961
  endloop
endfacet
facet normal 0.0 0.0 0.0
  outer loop
    vertex 24.23875617980957 78.27741241455078 0.0
    vertex 25.45203399658203 76.61369323730469 11.50313949584961
    vertex 25.45203399658203 76.61369323730469 0.0
  endloop
endfacet
facet normal 0.0 0.0 0.0
  outer loop
    vertex 24.23875617980957 78.27741241455078 0.0
    vertex 22.66403579711914 79.84123229980469 0.0
    vertex 22.66403579711914 79.84123229980469 11.50313949584961
  endloop
endfacet
facet normal 0.0 0.0 0.0
  outer loop
    vertex 24.23875617980957 78.27741241455078 0.0
    vertex 22.66403579711914 79.84123229980469 11.50313949584961
    vertex 24.23875617980957 78.27741241455078 11.50313949584961
  endloop
endfacet
facet normal 0.0 0.0 0.0
  outer loop
    vertex 22.66403579711914 79.84123229980469 0.0
    vertex 21.014244079589844 81.2161636352539 0.0
    vertex 21.014244079589844 81.2161636352539 11.50313949584961
  endloop
endfacet
facet normal 0.0 0.0 0.0
  outer loop
    vertex 22.66403579711914 79.84123229980469 0.0
    vertex 21.014244079589844 81.2161636352539 11.50313949584961
    vertex 22.66403579711914 79.84123229980469 11.50313949584961
  endloop
endfacet
facet normal 0.0 0.0 0.0
  outer loop
    vertex 21.014244079589844 81.2161636352539 0.0
    vertex 18.02887725830078 82.67463684082031 0.0
    vertex 18.02887725830078 82.67463684082031 11.50313949584961
  endloop
endfacet
facet normal 0.0 0.0 0.0
  outer loop
    vertex 21.014244079589844 81.2161636352539 0.0
    vertex 18.02887725830078 82.67463684082031 11.50313949584961
    vertex 21.014244079589844 81.2161636352539 11.50313949584961
  endloop
endfacet
facet normal 0.0 0.0 0.0
  outer loop
    vertex 18.02887725830078 82.67463684082031 0.0
    vertex 14.998102188110352 83.97449493408203 0.0
    vertex 14.998102188110352 83.97449493408203 11.50313949584961
  endloop
endfacet
facet normal 0.0 0.0 0.0
  outer loop
    vertex 18.02887725830078 82.67463684082031 0.0
    vertex 14.998102188110352 83.97449493408203 11.50313949584961
    vertex 18.02887725830078 82.67463684082031 11.50313949584961
  endloop
endfacet
facet normal 0.0 0.0 0.0
  outer loop
    vertex 14.998102188110352 83.97449493408203 0.0
    vertex 12.138057708740234 85.06546783447266 0.0
    vertex 12.138057708740234 85.06546783447266 11.50313949584961
  endloop
endfacet
facet normal 0.0 0.0 0.0
  outer loop
    vertex 14.998102188110352 83.97449493408203 0.0
    vertex 12.138057708740234 85.06546783447266 11.50313949584961
    vertex 14.998102188110352 83.97449493408203 11.50313949584961
  endloop
endfacet
facet normal 0.0 0.0 0.0
  outer loop
    vertex 12.138057708740234 85.06546783447266 0.0
    vertex 10.943824768066406 85.47595977783203 11.50313949584961
    vertex 12.138057708740234 85.06546783447266 11.50313949584961
  endloop
endfacet
facet normal 0.0 0.0 0.0
  outer loop
    vertex 34.14659118652344 45.89970016479492 11.50313949584961
    vertex 34.14659118652344 45.89970016479492 0.0
    vertex 33.57264709472656 50.10924530029297 11.50313949584961
  endloop
endfacet
facet normal 0.0 0.0 0.0
  outer loop
    vertex 33.57264709472656 50.10924530029297 0.0
    vertex 33.57264709472656 50.10924530029297 11.50313949584961
    vertex 34.14659118652344 45.89970016479492 0.0
  endloop
endfacet
facet normal 0.0 0.0 0.0
  outer loop
    vertex 31.81690216064453 58.20503234863281 0.0
    vertex 31.81690216064453 58.20503234863281 11.50313949584961
    vertex 33.57264709472656 50.10924530029297 11.50313949584961
  endloop
endfacet
facet normal 0.0 0.0 0.0
  outer loop
    vertex 31.81690216064453 58.20503234863281 0.0
    vertex 33.57264709472656 50.10924530029297 11.50313949584961
    vertex 33.57264709472656 50.10924530029297 0.0
  endloop
endfacet
facet normal 0.0 0.0 0.0
  outer loop
    vertex 29.944917678833008 66.25057220458984 0.0
    vertex 29.944917678833008 66.25057220458984 11.50313949584961
    vertex 31.81690216064453 58.20503234863281 11.50313949584961
  endloop
endfacet
facet normal 0.0 0.0 0.0
  outer loop
    vertex 29.944917678833008 66.25057220458984 0.0
    vertex 31.81690216064453 58.20503234863281 11.50313949584961
    vertex 31.81690216064453 58.20503234863281 0.0
  endloop
endfacet
endsolid Uranium STLWriter Sun 22 Mar 2026 17:26:35
